<?xml version="1.0" standalone="no"?>
<!DOCTYPE svg PUBLIC "-//W3C//DTD SVG 20010904//EN"
 "http://www.w3.org/TR/2001/REC-SVG-20010904/DTD/svg10.dtd">
<svg version="1.0" xmlns="http://www.w3.org/2000/svg"
 width="1772.000000pt" height="2246.000000pt" viewBox="0 0 1772.000000 2246.000000"
 preserveAspectRatio="xMidYMid meet">
<metadata>
Created by potrace 1.13, written by Peter Selinger 2001-2015
</metadata>
<g transform="translate(0.000000,2246.000000) scale(0.100000,-0.100000)"
fill="#000000" stroke="none">
<path d="M1124 20166 c-116 -22 -185 -45 -271 -91 -198 -105 -336 -256 -453
-500 -83 -174 -110 -281 -110 -443 0 -209 80 -408 224 -560 31 -33 31 -34 31
-140 1 -118 16 -166 75 -230 l29 -32 -39 -61 c-42 -65 -64 -122 -80 -208 -22
-117 29 -251 131 -345 71 -66 123 -92 215 -107 128 -22 296 24 458 126 l84 52
43 -28 c72 -49 158 -71 307 -76 199 -8 337 20 441 89 l44 29 46 -19 c156 -67
353 -53 481 33 l51 34 57 -14 c207 -53 452 -45 596 19 159 71 265 244 266 431
0 140 -41 245 -141 364 l-58 68 61 -1 c52 -1 62 2 79 23 14 17 18 33 14 50 -8
38 -92 110 -182 158 l-79 42 -12 60 c-25 119 -129 235 -241 268 -54 16 -109
12 -196 -11 -16 -5 -27 6 -56 57 -41 70 -109 128 -179 152 -75 26 -203 30
-288 8 l-72 -19 -29 50 c-16 28 -37 59 -48 69 -11 9 -39 63 -63 120 -117 276
-375 494 -672 568 -108 26 -360 35 -464 15z m451 -139 c80 -23 175 -66 248
-113 86 -56 233 -205 271 -274 l28 -52 -33 7 c-101 22 -292 -8 -392 -62 -112
-61 -204 -178 -222 -281 l-6 -39 -42 14 c-69 24 -136 27 -207 8 -176 -45 -286
-168 -306 -340 -7 -54 -7 -55 -39 -55 -68 0 -135 -29 -189 -83 -29 -29 -59
-63 -68 -77 l-16 -25 -23 29 c-41 49 -98 147 -120 205 -81 215 -62 404 65 653
67 133 112 196 207 290 75 75 100 93 190 136 114 55 173 71 288 81 99 8 303
-4 366 -22z m556 -574 c63 -28 116 -86 151 -163 43 -94 43 -94 71 -104 21 -8
33 -4 65 17 53 38 93 47 193 47 71 0 94 -4 130 -23 54 -29 100 -88 129 -164
12 -32 26 -63 32 -70 18 -22 65 -14 115 17 68 43 135 42 195 -3 42 -32 107
-122 96 -133 -3 -3 -26 0 -49 7 -99 27 -281 7 -388 -43 -39 -18 -67 -21 -191
-22 -109 -1 -156 -6 -191 -19 -43 -16 -50 -16 -150 4 -272 53 -513 4 -727
-148 -75 -53 -94 -80 -90 -125 2 -26 10 -37 38 -50 30 -16 67 -18 276 -18 239
0 311 -7 412 -37 35 -11 52 -22 52 -33 0 -9 13 -37 29 -62 24 -38 43 -53 104
-83 42 -19 82 -47 92 -61 30 -46 89 -106 113 -115 52 -20 112 32 141 123 10
29 23 43 64 66 67 38 113 85 133 137 17 45 82 103 146 129 19 8 74 20 122 26
l88 12 54 -37 c160 -111 254 -276 240 -424 -7 -86 -61 -196 -118 -245 -116
-100 -347 -120 -616 -54 l-92 22 -27 -22 c-106 -85 -193 -111 -313 -94 -74 11
-96 19 -187 66 -36 19 -63 11 -94 -28 -40 -51 -162 -91 -303 -102 -174 -12
-338 28 -385 95 -39 54 -59 51 -169 -22 -155 -105 -263 -147 -376 -147 -121 0
-208 53 -264 160 -31 59 -34 71 -29 130 5 78 37 152 101 236 59 79 62 115 12
145 -101 59 -127 183 -67 321 27 65 94 135 140 148 20 5 63 7 96 4 81 -8 91 3
98 118 7 100 39 181 87 222 65 54 197 82 266 55 16 -5 49 -30 76 -55 51 -47
71 -53 106 -28 20 14 22 24 22 99 0 185 82 284 280 339 75 21 201 16 261 -11z
m1203 -694 c50 -17 117 -44 150 -62 l60 -32 -149 -6 c-83 -4 -177 -12 -210
-19 -77 -16 -160 -47 -175 -65 -15 -18 -30 -11 -30 13 0 19 -41 105 -65 139
-16 20 -15 21 35 38 128 42 245 41 384 -6z m-1040 -49 c21 -4 40 -10 42 -13 2
-2 -2 -20 -11 -40 -8 -19 -18 -61 -21 -91 -6 -46 -10 -56 -23 -52 -135 40
-145 41 -389 41 -133 0 -242 2 -242 5 0 3 28 23 61 44 78 51 219 103 306 115
72 10 214 6 277 -9z m501 -14 c48 -25 89 -99 100 -176 6 -42 3 -58 -17 -97
-30 -61 -48 -67 -48 -15 0 49 -17 64 -96 85 -160 44 -284 -1 -284 -104 0 -45
-12 -50 -37 -13 -13 20 -16 45 -14 116 2 101 11 131 48 170 62 65 255 84 348
34z m-69 -298 c7 -8 -18 -119 -43 -186 l-16 -43 -24 23 c-31 28 -71 97 -90
150 -21 61 -7 71 88 66 43 -1 81 -6 85 -10z"/>
<path d="M13510 20063 c-306 -32 -339 -34 -559 -27 -146 4 -263 3 -331 -5
-323 -34 -333 -34 -995 -2 -166 8 -208 3 -239 -29 -17 -16 -21 -31 -19 -73 1
-28 2 -124 2 -212 1 -194 9 -215 92 -239 29 -9 59 -16 66 -16 8 0 13 -11 13
-27 0 -112 31 -772 39 -824 7 -49 5 -79 -5 -119 -8 -30 -14 -67 -14 -83 l0
-29 -107 6 c-60 4 -183 11 -274 18 -110 7 -263 8 -460 2 -162 -4 -447 -6 -634
-4 -187 2 -450 3 -585 2 -1045 -5 -2479 -3 -2590 4 -133 9 -452 10 -865 4
-130 -2 -252 2 -320 10 -143 17 -798 18 -910 2 -44 -6 -165 -16 -270 -21 -152
-7 -201 -13 -243 -29 -76 -29 -102 -49 -119 -89 -8 -20 -32 -57 -53 -82 -47
-56 -79 -125 -80 -169 0 -18 -6 -43 -14 -55 -8 -12 -17 -39 -20 -60 -4 -21
-27 -82 -52 -136 -24 -54 -48 -119 -52 -143 -5 -24 -26 -70 -46 -103 -45 -69
-101 -190 -117 -248 -11 -42 -158 -370 -205 -457 -13 -25 -54 -106 -90 -180
-36 -74 -83 -171 -105 -215 -21 -44 -39 -87 -39 -96 0 -62 -133 -354 -189
-414 -59 -63 -91 -156 -91 -263 0 -31 -72 -192 -114 -255 -24 -35 -36 -95 -43
-208 l-5 -86 32 -26 32 -27 195 0 195 0 -6 -22 c-14 -49 -18 -233 -7 -273 7
-22 16 -155 21 -296 5 -141 14 -285 19 -320 6 -35 13 -185 16 -332 3 -147 10
-278 14 -290 14 -38 21 -125 31 -387 6 -140 15 -302 21 -360 15 -138 17 -597
7 -1221 -6 -334 -5 -537 2 -596 5 -50 14 -191 20 -314 6 -136 16 -251 26 -292
14 -58 15 -85 5 -192 -6 -69 -11 -132 -11 -140 0 -22 -104 -20 -198 5 -43 10
-147 26 -232 35 -85 8 -198 22 -250 30 -165 28 -373 65 -440 80 -56 13 -294
55 -311 55 -23 0 -54 250 -46 362 7 88 49 298 79 397 31 105 129 303 146 296
67 -25 241 -6 325 36 90 47 167 150 183 246 l6 40 68 5 c121 9 200 75 240 199
41 127 15 266 -68 361 l-32 35 35 76 c92 199 87 398 -13 553 -90 139 -248 214
-451 214 l-79 0 -16 66 c-26 104 -71 181 -150 259 -82 82 -155 123 -281 160
-182 53 -371 43 -510 -28 -74 -37 -174 -136 -206 -206 -20 -42 -28 -50 -44
-45 -82 22 -148 27 -207 16 -190 -38 -273 -148 -272 -359 l1 -91 -30 -6 c-104
-21 -250 -133 -299 -231 -38 -74 -62 -195 -55 -274 9 -103 39 -176 113 -279
15 -20 15 -24 2 -40 -56 -62 -85 -183 -69 -280 33 -194 144 -288 333 -280 l73
3 28 -37 c61 -84 199 -146 297 -135 l49 6 15 -53 c24 -82 44 -184 51 -266 7
-83 -8 -304 -31 -450 -24 -151 -20 -143 -68 -135 -61 11 -890 17 -1036 8
l-125 -8 -3 -74 c-3 -67 -1 -73 15 -66 10 4 247 10 527 13 501 4 616 -1 616
-28 0 -14 -57 -155 -85 -210 -33 -65 -33 -110 1 -143 26 -26 74 -37 218 -52
36 -3 76 -15 100 -30 122 -72 140 -79 202 -80 57 0 67 3 130 46 l69 47 110 7
c141 8 181 19 222 60 27 27 33 40 33 76 0 24 -9 64 -20 88 -11 24 -20 47 -20
52 0 10 -15 12 280 -45 251 -49 439 -79 640 -100 74 -9 173 -24 220 -35 47
-12 114 -21 148 -21 l64 0 -7 -122 c-3 -68 -10 -143 -15 -168 -5 -25 -14 -76
-20 -115 -6 -38 -16 -95 -21 -125 -13 -71 -33 -587 -33 -845 0 -110 5 -324 11
-475 6 -151 9 -277 7 -279 -6 -7 -54 103 -54 126 0 33 -86 194 -138 259 -45
56 -144 144 -161 144 -12 0 -31 -105 -31 -175 0 -34 -4 -86 -10 -116 -5 -30
-14 -139 -20 -244 -11 -201 -18 -265 -30 -265 -4 0 -23 15 -42 34 -23 22 -45
61 -66 118 -18 46 -47 108 -66 138 -19 30 -50 81 -68 112 -27 48 -38 58 -60
58 -25 0 -33 -11 -89 -117 -33 -65 -84 -161 -113 -213 l-52 -95 -73 -3 c-89
-4 -95 1 -144 106 -29 61 -43 117 -71 267 -19 105 -48 226 -63 270 -25 71 -31
80 -53 80 -20 0 -31 -11 -57 -60 -18 -33 -48 -107 -68 -164 -27 -77 -228 -564
-240 -578 -1 -2 -21 43 -45 100 -23 56 -48 116 -55 132 -8 17 -15 44 -18 60
-4 28 -21 98 -54 223 -7 29 -27 67 -43 85 -36 40 -44 36 -127 -69 -100 -126
-185 -215 -202 -212 -9 2 -19 17 -22 33 -13 59 -9 276 5 338 64 274 63 283
-21 226 -136 -92 -339 -321 -467 -526 l-48 -78 -20 25 c-32 42 -84 124 -108
170 -41 81 -170 230 -199 230 -35 0 -55 -33 -152 -250 -41 -90 -43 -101 -47
-207 -5 -125 -2 -128 54 -94 22 14 38 38 58 87 15 38 41 101 58 139 16 39 35
85 41 103 6 17 13 32 17 32 4 0 17 -28 30 -63 31 -89 61 -130 168 -234 74 -73
98 -91 111 -84 31 17 177 179 244 272 37 52 81 110 97 129 l29 35 1 -76 c0
-64 7 -96 44 -202 24 -70 47 -131 51 -137 20 -32 126 13 209 87 21 19 53 41
71 49 19 7 37 23 40 35 4 11 10 17 14 13 11 -12 31 -87 31 -113 0 -38 103
-264 146 -322 41 -53 103 -109 121 -109 10 0 51 43 76 80 73 107 78 117 192
393 29 71 55 131 58 133 2 2 10 -24 16 -58 29 -148 45 -198 89 -282 30 -56 61
-100 85 -120 37 -29 44 -31 139 -34 166 -6 193 13 298 213 28 55 56 104 60
109 10 10 27 -22 65 -119 15 -38 36 -85 47 -103 35 -57 218 -182 250 -170 9 4
23 43 38 105 13 54 28 107 34 118 6 11 14 99 18 195 4 96 11 200 15 230 8 54
8 54 24 30 32 -49 59 -110 59 -131 0 -12 17 -61 39 -108 21 -47 51 -115 66
-151 16 -36 41 -88 56 -117 l28 -52 -9 -131 c-5 -73 -12 -146 -15 -163 l-6
-32 -272 3 c-170 2 -364 -2 -517 -12 -135 -8 -319 -18 -410 -22 -168 -6 -268
-17 -469 -54 -133 -23 -240 -25 -342 -6 -41 8 -141 24 -224 36 -82 11 -194 28
-247 36 -131 19 -327 19 -375 -1 -19 -8 -74 -20 -122 -25 -47 -5 -146 -19
-219 -30 -74 -11 -140 -20 -148 -20 -11 0 -14 -16 -14 -70 0 -49 4 -70 13 -70
32 0 400 53 462 67 93 21 271 27 353 13 37 -6 103 -15 147 -19 74 -8 148 -19
365 -56 123 -22 240 -19 387 9 198 37 200 38 333 47 312 21 651 33 950 34
l325 0 -1 -70 c-1 -38 -7 -210 -14 -382 -14 -313 -11 -393 20 -648 5 -38 14
-191 20 -340 16 -409 25 -443 126 -485 l57 -23 286 9 c157 5 380 9 495 8 l210
-1 15 -24 c9 -13 58 -69 111 -125 52 -55 120 -140 150 -188 73 -115 169 -214
310 -317 143 -105 217 -153 345 -222 55 -30 150 -82 210 -117 61 -34 166 -91
235 -127 69 -36 136 -73 150 -83 62 -44 229 -118 380 -170 219 -76 396 -142
620 -233 371 -149 624 -218 857 -233 l100 -7 -15 -41 c-8 -23 -15 -77 -16
-122 l-1 -81 -869 -6 c-478 -4 -870 -6 -871 -5 -2 2 2 74 7 160 10 156 10 157
-15 211 -47 104 -389 417 -454 417 -18 0 -129 -123 -189 -210 -17 -25 -46 -61
-65 -81 -19 -19 -47 -54 -63 -78 l-30 -42 3 -190 2 -189 -74 0 c-41 0 -258 9
-483 21 -326 16 -470 19 -711 14 -291 -7 -303 -6 -303 11 0 11 5 74 12 141
l11 122 -38 58 c-21 32 -66 85 -99 119 -34 33 -97 102 -141 153 -98 113 -208
211 -238 211 -39 0 -243 -225 -358 -395 l-54 -80 0 -170 0 -170 -35 1 c-19 1
-158 14 -308 28 -248 24 -316 26 -717 26 l-443 0 -4 97 c-3 79 -9 108 -30 153
-14 30 -39 86 -54 124 -15 39 -50 99 -77 135 -27 36 -69 95 -93 131 -60 92
-74 103 -118 95 -38 -8 -72 -37 -116 -100 -16 -22 -51 -58 -80 -80 -45 -35
-208 -235 -239 -294 -8 -15 -10 -60 -5 -150 l7 -129 -84 -6 c-123 -8 -445 -24
-511 -25 l-58 -1 0 -70 0 -71 213 6 c116 4 236 11 266 16 30 5 82 9 114 9 l60
0 -6 -196 c-4 -108 -8 -198 -9 -199 -9 -7 -356 -25 -486 -25 l-152 0 0 -72 0
-71 233 6 c127 4 268 10 311 13 l79 7 -7 -34 c-23 -126 -46 -405 -46 -571 l0
-188 -285 0 -285 0 0 -70 0 -70 285 0 285 0 0 -214 c0 -248 12 -226 -126 -226
-44 0 -163 -3 -262 -7 l-182 -6 0 -70 0 -69 233 6 c127 4 256 9 285 12 l52 5
0 -400 0 -401 70 0 70 0 0 943 c0 1028 -3 943 61 1442 8 61 10 207 6 450 -4
335 -3 362 14 396 10 20 25 39 33 42 8 3 29 27 47 54 18 26 79 93 135 149
l103 100 44 -67 c42 -62 137 -279 137 -311 0 -7 7 -24 16 -37 14 -20 16 -52
11 -264 -3 -133 -10 -298 -15 -367 -6 -69 -15 -289 -21 -490 -14 -454 -28
-833 -41 -1055 -5 -93 -11 -353 -12 -578 l-3 -407 68 0 c37 0 68 1 69 3 1 1 4
198 7 437 l6 435 140 6 c77 4 343 12 590 17 248 6 537 14 643 18 l192 7 0
-461 0 -462 69 0 68 0 7 923 c5 765 8 2124 4 2284 0 37 5 49 50 97 69 76 166
205 191 254 12 23 27 42 34 42 13 0 154 -146 245 -252 27 -32 61 -67 75 -78
49 -39 70 -86 64 -143 -13 -130 -29 -237 -42 -289 -26 -99 -36 -225 -42 -558
-4 -223 -1 -369 7 -465 22 -244 29 -407 39 -915 6 -272 14 -586 17 -697 l6
-203 65 0 65 0 -3 450 -4 450 256 0 c141 0 316 -5 390 -11 103 -9 222 -9 519
2 212 7 408 14 435 14 l50 0 7 -80 c4 -44 14 -120 23 -170 15 -82 33 -385 34
-577 l1 -78 71 0 71 0 -7 243 c-4 160 -14 288 -27 377 -26 167 -31 220 -51
490 -39 528 -50 791 -41 949 12 203 9 579 -5 909 l-12 264 24 37 c14 21 43 58
66 84 22 26 59 79 81 117 23 39 46 70 51 70 6 0 41 -26 77 -59 37 -32 96 -79
131 -105 35 -26 82 -67 104 -92 39 -44 40 -46 34 -102 -4 -31 -13 -97 -22
-147 -33 -195 -29 -762 9 -1260 36 -472 48 -747 63 -1473 l6 -302 70 0 70 0
-7 347 c-3 191 -9 379 -13 417 l-6 69 369 -7 c203 -4 450 -14 549 -22 99 -8
295 -23 435 -35 140 -11 298 -24 350 -27 l95 -7 6 -180 c3 -99 10 -264 14
-367 l7 -188 71 0 70 0 -6 112 c-3 62 -11 295 -17 518 -21 798 -39 1120 -75
1350 -18 114 -29 236 -35 395 -5 127 -14 330 -20 453 l-10 223 24 32 c14 18
39 68 57 112 17 44 39 91 49 105 10 14 28 45 40 70 12 25 28 48 36 53 7 4 22
23 34 42 12 19 25 35 30 35 4 0 19 -19 33 -42 14 -24 47 -73 74 -110 66 -92
129 -195 186 -307 l49 -94 -22 -86 c-19 -73 -23 -124 -27 -346 -6 -249 -1
-334 32 -655 35 -338 39 -419 37 -855 0 -247 -4 -575 -8 -727 l-6 -278 69 0
70 0 6 212 c4 116 7 294 7 395 l0 183 383 0 c210 0 450 4 532 10 83 5 222 15
310 21 88 6 293 13 456 16 l296 6 6 -74 c4 -41 9 -230 13 -421 l7 -348 68 0
69 0 0 153 c-1 272 -20 710 -35 802 -12 72 -15 197 -15 620 0 292 -5 573 -11
625 -5 52 -14 156 -19 230 -11 180 -32 313 -80 529 -22 98 -40 193 -40 210 0
34 69 145 129 210 18 19 50 64 72 100 21 36 47 76 57 89 l18 23 40 -48 c23
-26 47 -59 54 -73 7 -14 30 -47 52 -73 22 -26 54 -72 72 -100 17 -29 43 -68
59 -88 l27 -36 0 -180 c0 -114 5 -210 14 -259 8 -44 22 -189 31 -324 9 -135
20 -277 25 -316 5 -39 12 -131 15 -205 4 -74 15 -226 26 -339 15 -150 23 -339
30 -705 5 -275 12 -578 15 -672 l7 -173 70 0 70 0 -7 173 c-3 94 -8 287 -11
427 l-6 255 20 -25 c111 -137 227 -354 396 -743 l38 -87 73 0 72 0 -17 48
c-28 74 -106 254 -144 329 -19 37 -40 85 -47 107 -7 21 -25 58 -41 82 -16 23
-39 64 -51 91 -12 26 -36 70 -55 97 -18 26 -33 53 -33 58 0 9 -29 46 -111 141
-19 23 -52 66 -72 95 l-37 52 0 123 c0 67 -7 190 -15 272 -9 83 -19 224 -24
315 -5 91 -16 242 -25 335 -9 94 -23 260 -31 370 -9 110 -19 225 -24 255 -5
30 -10 143 -10 251 l-1 197 -35 48 c-20 27 -43 62 -53 77 -62 103 -335 397
-368 397 -31 0 -53 -21 -139 -137 -48 -65 -97 -127 -109 -138 -12 -11 -53 -66
-90 -123 l-68 -103 3 -81 4 -81 -70 -2 c-38 -1 -137 -9 -220 -18 -101 -11
-247 -17 -450 -17 -165 -1 -394 -5 -510 -10 l-210 -8 -35 23 c-19 13 -51 31
-70 39 -44 20 -292 110 -345 126 -34 10 -47 22 -80 77 -22 35 -50 79 -62 96
-12 18 -47 68 -77 112 -30 44 -84 109 -120 144 -55 55 -67 62 -80 52 -28 -23
-192 -245 -236 -319 l-43 -72 -91 6 c-81 5 -175 18 -330 45 -76 13 -311 93
-541 184 -115 46 -255 100 -310 120 -55 20 -115 43 -133 51 -18 9 -101 38
-185 66 -173 57 -216 78 -717 356 -74 41 -186 102 -247 136 -158 86 -373 237
-463 326 -71 70 -118 130 -185 239 -15 24 -45 62 -68 85 -86 87 -116 79 273
72 190 -4 377 -11 415 -16 39 -5 246 -14 460 -20 215 -5 451 -14 525 -21 164
-13 577 -30 717 -29 l101 1 33 -62 c35 -65 213 -266 274 -309 20 -14 57 -41
83 -61 106 -81 323 -188 476 -235 45 -14 95 -31 111 -38 17 -8 57 -19 90 -26
33 -6 87 -18 120 -25 33 -7 152 -25 265 -40 113 -14 268 -37 345 -51 77 -13
174 -27 215 -30 41 -3 111 -12 156 -19 44 -8 146 -19 224 -25 79 -6 147 -13
150 -15 4 -2 47 -9 96 -15 49 -6 123 -17 164 -25 41 -8 134 -21 205 -30 72 -9
168 -25 215 -36 47 -10 132 -26 189 -34 57 -9 107 -17 110 -20 14 -8 202 -35
247 -35 25 0 67 -9 93 -21 27 -11 79 -29 117 -39 38 -10 96 -26 129 -35 104
-29 315 -105 445 -160 69 -29 213 -87 320 -129 107 -42 220 -88 250 -102 30
-15 93 -40 140 -56 158 -55 245 -90 450 -182 113 -51 225 -101 249 -110 167
-65 617 -283 761 -369 75 -45 476 -312 500 -333 14 -12 81 -59 150 -105 97
-65 170 -128 327 -278 189 -180 376 -379 467 -496 22 -27 67 -79 101 -115 70
-73 188 -217 206 -252 7 -13 58 -83 113 -156 56 -73 114 -152 131 -175 16 -23
53 -74 83 -114 29 -39 92 -143 139 -230 84 -154 87 -160 91 -235 l4 -78 90 0
c80 0 89 2 84 18 -38 126 -40 157 -46 792 -7 644 -18 891 -70 1620 -5 69 -9
188 -10 265 0 77 -5 196 -11 265 -5 69 -14 177 -18 240 l-9 114 43 91 c24 49
56 119 71 155 15 36 35 77 45 91 10 14 21 37 24 52 4 15 10 29 14 31 15 10
157 -145 201 -219 55 -93 66 -109 94 -142 19 -22 33 -53 38 -86 18 -97 27
-491 37 -1487 5 -547 15 -1116 20 -1265 6 -148 11 -330 11 -402 l0 -133 72 0
71 0 -7 293 c-3 160 -9 348 -13 416 l-6 124 331 -6 332 -6 0 68 0 68 -182 6
c-99 4 -248 7 -330 7 l-148 0 0 93 c0 50 -3 156 -7 233 l-6 141 337 8 336 7 0
70 0 70 -335 -7 -335 -8 0 411 0 410 103 5 c56 2 207 13 335 23 l232 18 0 69
0 70 -107 -7 c-60 -4 -180 -14 -268 -21 -88 -8 -190 -15 -226 -15 l-66 0 -7
113 c-3 61 -9 153 -12 203 l-7 91 309 12 c170 6 326 14 347 17 l37 6 0 70 0
70 -32 -5 c-51 -9 -624 -31 -640 -25 -11 4 -18 39 -27 125 -17 157 -16 153
-55 209 -19 27 -57 85 -85 130 -28 44 -60 89 -72 100 -11 10 -32 38 -45 60
-22 38 -107 110 -209 180 l-39 26 -18 -24 c-32 -40 -165 -280 -188 -337 -11
-30 -36 -80 -53 -110 -62 -107 -61 -92 -27 -496 5 -66 10 -178 10 -250 0 -71
5 -182 10 -245 10 -118 20 -282 46 -755 8 -148 19 -335 24 -415 14 -231 12
-849 -3 -826 -70 110 -192 282 -322 453 -50 65 -103 138 -119 163 -32 50 -203
256 -231 280 -10 8 -51 56 -91 107 -84 105 -336 368 -533 555 -87 84 -175 155
-255 209 -66 45 -139 96 -161 113 -61 49 -469 317 -565 371 -188 107 -543 276
-765 365 -38 16 -110 47 -160 70 -173 81 -311 138 -440 184 -71 26 -159 60
-195 76 -36 16 -148 61 -250 101 -102 39 -246 97 -320 129 -224 96 -527 194
-710 230 -58 12 -132 27 -165 35 -33 8 -127 26 -210 40 -82 14 -194 35 -247
46 -110 23 -251 44 -353 54 -38 4 -86 11 -105 15 -63 16 -383 58 -488 65 -57
4 -117 11 -135 16 -18 5 -72 12 -122 15 -49 3 -159 19 -242 35 -84 16 -169 29
-190 29 -20 0 -78 7 -127 14 -50 8 -129 20 -176 26 -119 16 -209 36 -325 72
-110 33 -254 86 -271 99 -6 5 -29 15 -52 23 -57 20 -197 103 -230 136 -15 15
-41 34 -57 43 -33 17 -50 33 -165 160 -44 48 -78 92 -75 97 3 4 49 7 102 7 95
-2 97 -3 103 -27 13 -55 130 -96 300 -104 47 -3 110 -12 140 -20 55 -16 179
-20 235 -7 17 4 46 3 65 -1 69 -16 219 -27 372 -29 151 -2 158 -1 210 24 29
15 88 36 131 47 43 11 88 26 100 35 40 28 360 21 1042 -24 521 -35 709 -42
1270 -51 297 -5 608 -14 690 -19 83 -5 365 -10 628 -10 276 -1 530 -6 599 -12
87 -9 125 -9 141 -1 12 6 76 16 142 22 277 24 346 30 470 46 72 9 177 25 235
36 58 10 161 23 230 28 69 5 177 17 240 25 63 9 147 20 185 25 39 4 108 16
155 25 47 9 111 19 143 24 75 10 90 25 95 101 5 64 -13 446 -29 645 -15 182
-30 410 -39 615 -14 320 -29 611 -40 738 -5 67 -10 134 -10 147 l0 25 373 0
c376 0 498 8 712 45 377 66 860 72 1157 14 53 -11 99 -19 102 -19 3 0 6 31 6
69 l0 69 -68 16 c-124 28 -303 41 -567 41 -259 -1 -339 -7 -605 -47 -291 -43
-358 -48 -733 -48 -202 -1 -371 1 -376 4 -4 3 -11 58 -15 123 -4 65 -10 158
-14 206 -4 52 -3 92 2 97 6 6 24 34 40 65 17 30 55 95 85 145 47 81 54 101 62
171 5 43 16 98 25 122 9 23 25 71 36 106 l21 63 16 -28 c10 -16 32 -54 50 -84
18 -30 46 -98 62 -150 30 -96 64 -186 95 -250 9 -19 26 -55 37 -80 26 -55 65
-100 88 -100 29 0 133 149 169 240 28 75 87 190 96 190 9 0 28 -50 49 -129 26
-96 51 -154 110 -254 42 -72 64 -83 84 -41 6 15 33 59 59 98 27 39 56 90 65
113 9 23 31 65 50 95 30 47 62 113 123 253 l17 40 8 -40 c5 -22 13 -121 19
-220 14 -242 23 -309 51 -380 34 -84 53 -85 111 -3 73 103 188 334 188 377 0
10 3 12 10 5 5 -5 14 -45 20 -89 23 -169 35 -198 109 -279 35 -37 159 -106
191 -106 9 0 26 7 39 16 39 28 120 226 141 344 7 36 20 90 31 120 16 45 19 82
19 215 l-1 160 -23 -27 c-45 -51 -149 -346 -170 -485 -27 -177 -39 -197 -98
-172 -80 33 -118 103 -118 220 0 32 -9 81 -20 111 -10 29 -24 71 -30 94 -11
47 -74 134 -95 134 -20 0 -61 -67 -107 -175 -20 -49 -53 -120 -71 -157 l-34
-67 -7 167 c-10 253 -31 344 -104 460 -25 39 -49 72 -52 72 -21 0 -98 -147
-189 -362 -22 -54 -57 -123 -77 -154 -20 -32 -47 -82 -60 -113 -13 -34 -24
-50 -27 -41 -3 8 -17 62 -32 119 -20 82 -35 117 -68 165 -41 59 -115 114 -136
102 -5 -3 -31 -43 -57 -89 -27 -45 -63 -102 -81 -127 -17 -25 -45 -74 -61
-108 -29 -60 -30 -61 -44 -40 -21 36 -55 125 -83 223 -17 58 -45 123 -82 185
-31 52 -69 120 -85 150 -30 57 -103 140 -124 140 -17 0 -92 -155 -110 -230 -9
-36 -26 -90 -39 -120 -12 -30 -28 -95 -35 -145 -10 -70 -21 -104 -49 -153
l-36 -63 -6 238 c-4 131 -10 348 -14 483 -8 280 5 649 32 875 13 108 18 223
18 412 l0 261 55 10 c30 6 118 16 195 22 77 7 174 16 215 20 103 12 371 12
450 0 36 -5 112 -14 170 -20 58 -6 137 -19 175 -29 39 -10 115 -26 170 -36 55
-10 160 -31 233 -46 73 -16 144 -29 157 -29 27 0 458 -141 505 -165 47 -24 50
-21 50 59 0 86 29 67 -235 157 -99 33 -211 67 -250 75 -38 8 -135 27 -215 43
-80 17 -185 37 -235 46 -49 9 -124 25 -165 35 -41 11 -122 24 -180 29 -58 6
-148 16 -200 22 -108 13 -456 6 -535 -10 -27 -6 -111 -15 -185 -21 -74 -5
-147 -13 -161 -16 l-26 -6 -3 634 c-7 1156 0 1742 30 2808 12 411 5 872 -16
1092 l-6 56 144 4 c141 3 144 4 218 39 65 31 80 44 108 88 17 29 32 65 32 80
0 40 -24 104 -65 171 -19 32 -35 63 -35 70 0 6 -11 39 -24 73 -13 34 -36 94
-51 132 -15 39 -40 95 -55 125 -15 30 -49 109 -75 175 -47 120 -81 189 -191
385 -33 59 -70 131 -83 160 -12 30 -38 78 -57 106 -21 31 -38 71 -43 101 -5
34 -20 66 -48 104 -23 29 -67 101 -98 159 -31 58 -74 134 -97 170 -25 41 -58
120 -88 211 -50 152 -79 213 -164 339 -28 41 -62 98 -77 125 -83 157 -112 205
-170 288 -125 177 -194 242 -281 268 -43 12 -275 29 -404 29 l-101 0 -7 71
c-4 39 -12 83 -18 98 -11 28 -13 470 -2 556 3 28 -1 123 -10 213 -9 90 -14
168 -11 173 4 5 17 9 29 9 52 0 86 49 101 146 8 54 -13 322 -28 354 -20 41
-92 63 -177 53z m73 -205 c4 -46 7 -115 7 -155 l0 -72 -52 -6 c-111 -13 -598
-22 -1238 -25 -366 -1 -695 -2 -733 -3 l-67 -2 -3 158 c-2 152 -2 157 18 157
11 0 137 -7 280 -15 364 -20 534 -19 790 7 198 19 235 20 372 10 124 -9 183
-9 325 4 95 8 178 16 183 18 6 3 33 5 61 5 l51 1 6 -82z m-129 -390 c10 -45
26 -230 26 -293 l0 -65 -276 0 -275 0 -14 33 c-8 20 -17 94 -21 186 l-7 152
224 -6 c131 -4 243 -2 269 3 66 14 69 14 74 -10z m-698 -2 c1 0 7 -68 13 -151
6 -82 14 -164 17 -181 l6 -31 -153 -7 c-84 -4 -335 -4 -556 0 -401 7 -403 7
-403 28 0 12 -5 92 -10 179 -6 87 -7 163 -4 169 5 7 171 8 548 3 298 -4 542
-8 542 -9z m652 -484 l62 -2 0 -174 0 -174 -42 -6 c-90 -12 -351 -26 -523 -26
-99 0 -232 -4 -295 -8 l-115 -7 -2 193 -1 192 106 1 c59 1 148 4 197 8 85 6
476 8 613 3z m-1161 -18 l112 -7 5 -71 c7 -90 10 -179 8 -233 l-2 -43 -107 0
c-112 0 -193 -7 -397 -34 -66 -9 -127 -14 -137 -11 -25 8 -29 32 -36 227 l-6
177 64 4 c71 5 325 0 496 -9z m1262 -574 c6 -58 15 -157 18 -221 l6 -116 -75
-7 c-93 -8 -578 -9 -611 -1 -23 6 -25 12 -37 143 -7 75 -13 171 -14 212 l-1
75 280 7 c154 4 309 11 345 16 36 4 68 6 71 3 3 -4 11 -53 18 -111z m-838 -5
c0 -44 6 -134 13 -200 7 -66 11 -123 7 -127 -10 -10 -475 -28 -744 -28 l-245
0 -6 58 c-6 65 -11 234 -8 305 l2 47 68 1 c37 0 103 7 147 14 58 10 175 13
422 12 l343 -2 1 -80z m-7096 -97 c111 -7 435 -13 730 -13 292 0 701 -5 910
-11 232 -7 699 -10 1200 -7 1087 7 1269 7 1670 3 187 -2 475 0 640 5 203 5
356 4 475 -4 96 -6 216 -14 267 -17 l91 -6 7 -96 c10 -138 22 -194 45 -214 14
-11 50 -18 116 -23 99 -8 849 11 964 23 37 4 82 4 100 -1 59 -14 495 -20 650
-8 114 8 150 15 170 29 39 29 52 91 45 205 l-6 97 98 0 c54 0 153 -5 220 -9
144 -11 184 -29 248 -112 22 -29 52 -66 66 -83 50 -60 122 -180 182 -301 11
-22 41 -71 67 -110 89 -134 121 -198 171 -349 37 -111 66 -176 108 -246 32
-52 77 -131 101 -175 23 -44 57 -100 75 -125 18 -25 38 -69 45 -98 7 -30 28
-76 47 -104 18 -28 44 -74 56 -102 21 -50 33 -72 152 -285 33 -57 85 -170 118
-250 32 -80 71 -171 86 -201 31 -62 121 -293 121 -312 0 -6 18 -42 40 -79 54
-90 53 -111 -7 -149 l-48 -30 -345 1 c-190 0 -367 4 -395 9 -87 17 -1381 25
-1594 11 -143 -10 -223 -10 -346 -1 -236 16 -1099 29 -1320 19 -368 -17 -792
-22 -1017 -10 -190 9 -373 11 -928 8 -47 0 -202 5 -345 12 -168 7 -656 11
-1385 10 -752 -1 -1150 2 -1200 9 -102 15 -1795 19 -2867 8 -535 -6 -843 -5
-843 1 0 33 24 131 35 143 8 8 28 44 46 80 17 36 40 81 50 100 11 19 19 53 20
75 0 22 6 73 13 113 11 64 19 79 53 115 49 51 148 246 192 376 17 52 31 99 31
105 0 6 16 43 35 81 19 39 62 126 96 195 33 69 74 148 90 175 16 28 29 56 29
63 0 6 34 82 75 167 42 85 86 187 99 227 31 93 73 181 124 260 27 42 44 83 51
122 6 33 17 69 25 81 18 28 76 173 76 191 0 8 9 32 20 54 11 22 20 53 20 69 0
43 13 71 59 120 22 25 45 59 51 76 6 19 22 37 38 44 14 7 105 17 202 22 231
12 379 24 387 32 11 11 434 7 648 -5z m1150 -3230 c41 -8 411 -10 1175 -9 650
1 1232 -3 1395 -9 255 -10 801 -17 1675 -23 179 -1 440 3 580 9 263 12 1124 4
1340 -13 58 -4 155 -7 215 -5 312 7 1498 7 1615 0 74 -5 211 -12 305 -16 l169
-7 12 -95 c20 -153 27 -748 14 -1125 -15 -439 -33 -1362 -34 -1765 -1 -284 11
-1344 21 -1950 4 -193 1 -268 -16 -420 -30 -260 -44 -632 -36 -910 3 -129 9
-381 13 -560 4 -179 10 -330 14 -335 9 -14 36 -325 43 -495 6 -140 17 -332 36
-600 5 -85 15 -265 20 -400 10 -267 22 -465 38 -660 15 -184 34 -578 28 -594
-5 -13 -60 -26 -187 -45 -36 -5 -96 -14 -135 -20 -96 -15 -297 -38 -433 -51
-63 -6 -148 -17 -190 -25 -42 -7 -104 -16 -137 -20 -33 -3 -82 -10 -110 -15
-27 -5 -111 -14 -185 -20 -74 -6 -178 -15 -230 -20 -124 -13 -1298 -12 -1505
1 -88 5 -412 14 -720 19 -543 8 -752 17 -1415 60 -173 11 -423 21 -555 22
-233 3 -240 4 -238 23 1 11 14 128 28 260 42 395 95 708 191 1139 20 89 33
170 29 183 -3 14 -16 34 -29 46 -17 16 -25 38 -31 82 -19 155 -69 237 -198
324 -36 25 -70 56 -76 69 -8 16 -9 64 -5 141 9 154 -4 200 -90 315 -68 91 -95
154 -162 374 -39 131 -46 145 -76 166 -47 33 -104 21 -253 -55 -204 -104 -250
-144 -286 -248 -14 -42 -19 -46 -57 -54 -44 -9 -82 -45 -82 -78 0 -13 -7 -19
-22 -19 -64 0 -108 -62 -93 -130 4 -17 2 -30 -3 -30 -13 0 -90 -79 -117 -120
-14 -21 -30 -70 -39 -120 -20 -109 -62 -191 -142 -279 -70 -78 -94 -136 -94
-228 0 -48 -3 -54 -29 -68 -50 -25 -55 -65 -27 -186 14 -57 30 -153 36 -214
12 -118 158 -1152 165 -1172 2 -7 -8 -21 -22 -33 -24 -18 -40 -20 -212 -20
l-186 0 -2 323 c-1 177 -7 441 -13 587 -11 259 -24 1152 -35 2500 -3 371 -10
727 -16 790 -56 668 -386 1056 -986 1165 -124 22 -374 30 -518 16 -399 -39
-690 -163 -916 -390 -170 -171 -272 -353 -339 -608 -40 -151 -49 -293 -60
-938 -5 -341 -15 -835 -21 -1097 -13 -549 4 -1550 37 -2120 l6 -108 -182 7
c-110 4 -286 1 -446 -7 -197 -10 -283 -11 -335 -2 -39 5 -73 12 -75 15 -13 12
-23 148 -28 376 -3 140 -10 282 -15 315 -42 275 -39 708 9 1111 5 44 14 132
19 195 6 63 18 190 27 282 11 108 15 195 10 245 -13 141 -30 604 -30 808 0
366 21 773 49 930 14 77 30 205 35 285 6 80 17 244 25 365 11 163 12 237 4
285 -11 71 -21 182 -41 450 -14 194 -14 208 -9 1180 3 478 1 715 -7 785 -7 55
-16 219 -22 365 -10 287 -15 347 -36 428 -9 37 -14 126 -14 281 -1 125 -6 260
-11 301 -5 41 -14 190 -19 330 -5 140 -14 271 -20 290 -13 45 -13 147 1 227
l11 63 182 1 c99 1 377 5 616 9 616 10 2390 1 2465 -12z m-4738 -1642 c194
-63 307 -192 335 -385 6 -42 17 -83 25 -91 11 -12 43 -15 161 -15 132 0 153
-3 207 -24 83 -33 164 -115 194 -196 34 -90 31 -206 -7 -311 -16 -44 -41 -98
-55 -121 -47 -74 -46 -85 17 -151 68 -71 86 -112 86 -194 0 -76 -24 -133 -71
-172 -33 -28 -35 -29 -126 -23 -109 8 -123 0 -123 -67 0 -113 -67 -219 -158
-251 -124 -42 -248 -26 -314 42 -20 21 -41 50 -47 65 -6 15 -22 35 -36 44 -26
17 -28 16 -133 -34 -59 -28 -125 -56 -146 -62 -50 -16 -211 -8 -286 14 -30 9
-79 22 -108 28 l-52 12 -53 -53 c-71 -72 -116 -94 -183 -89 -29 3 -74 16 -100
29 -39 20 -54 36 -79 84 l-31 60 -131 0 c-153 0 -172 8 -212 91 -19 38 -25 65
-25 124 -1 84 14 121 69 180 52 54 50 85 -5 136 -61 57 -104 152 -109 242 -9
194 107 339 308 385 80 19 94 35 84 97 -5 25 -8 81 -7 125 0 66 5 89 25 125
33 60 90 91 178 98 59 4 75 1 140 -27 68 -31 74 -31 97 -16 13 8 24 21 24 28
0 28 62 139 101 181 51 56 93 83 167 107 85 28 267 21 379 -15z m77 -2032 l38
-45 -45 -97 c-63 -136 -90 -217 -126 -376 -46 -205 -56 -307 -42 -442 14 -140
47 -258 107 -375 25 -50 44 -98 42 -107 -4 -20 -58 -30 -164 -31 -92 -1 -153
-20 -205 -65 -60 -51 -97 -47 -194 20 -55 37 -154 64 -242 64 -29 0 -53 4 -53
9 0 4 16 42 35 84 89 192 142 423 165 715 13 171 4 281 -41 460 -17 68 -29
124 -27 125 2 1 20 17 40 36 l37 34 100 -23 c98 -23 101 -24 105 -54 3 -17 10
-67 17 -111 13 -93 30 -132 64 -145 42 -16 71 4 104 67 57 114 203 303 232
303 8 -1 31 -21 53 -46z m4316 -1109 c511 -93 808 -451 859 -1035 6 -63 13
-401 16 -750 10 -1229 24 -2345 29 -2365 10 -39 28 -882 21 -977 l-7 -98 -87
0 c-47 0 -194 7 -326 15 -895 55 -1028 59 -1540 48 -209 -4 -443 -6 -520 -3
l-140 5 -7 75 c-16 182 -40 1120 -42 1590 -2 855 33 2390 59 2526 17 92 73
261 115 344 180 356 511 573 971 635 140 19 470 13 599 -10z m2532 -2594 c30
-83 55 -133 91 -180 72 -94 87 -122 87 -157 0 -28 -3 -31 -26 -26 -18 3 -27
13 -31 33 -18 93 -193 119 -243 36 -11 -18 -20 -39 -20 -48 0 -10 -15 -20 -40
-28 -46 -14 -70 -44 -77 -99 -6 -45 17 -97 47 -107 17 -5 19 -12 14 -49 -5
-36 -2 -47 20 -73 45 -54 124 -66 168 -26 15 13 19 13 40 -1 44 -31 116 -12
154 42 15 22 15 22 45 -13 17 -18 59 -52 94 -75 95 -59 141 -145 133 -246 -5
-67 -18 -69 -483 -68 -381 0 -925 18 -1010 32 l-40 7 -3 70 c-4 93 1 107 54
163 94 98 144 193 169 323 16 87 51 141 115 180 38 23 40 23 40 1 0 -43 91
-88 154 -77 19 4 44 17 56 30 19 20 26 22 51 13 80 -28 166 62 128 134 -8 16
-7 29 6 58 17 37 17 40 -1 76 -24 49 -62 76 -108 77 -31 1 -36 4 -36 24 0 35
36 99 67 121 16 10 86 49 158 86 l130 68 28 -94 c15 -51 46 -144 69 -207z
m-537 -61 c-12 -56 30 -78 78 -40 30 24 50 25 67 5 10 -12 6 -17 -23 -29 -19
-7 -38 -19 -41 -25 -13 -20 4 -49 40 -70 19 -12 32 -26 29 -31 -11 -18 -42
-11 -68 16 -18 18 -34 24 -54 22 -24 -3 -29 -8 -33 -43 -4 -35 -8 -40 -34 -43
-43 -5 -52 11 -27 51 12 19 18 42 15 51 -9 24 -48 30 -82 12 -42 -22 -51 -20
-63 11 -15 39 0 48 63 35 33 -6 59 -7 70 -1 22 12 23 52 3 69 -28 23 -18 40
26 40 40 0 40 0 34 -30z m571 -285 c3 -8 1 -29 -5 -46 -17 -51 -3 -64 71 -64
62 0 63 -1 66 -29 l4 -28 -50 7 c-45 6 -52 4 -62 -14 -13 -26 -1 -51 35 -75
30 -20 32 -41 5 -56 -21 -11 -34 2 -61 63 -8 18 -20 27 -34 27 -27 0 -41 -15
-49 -57 -10 -44 -27 -56 -54 -37 -21 14 -21 17 -7 45 9 16 20 29 25 29 15 0
22 38 10 60 -9 16 -21 20 -60 20 -50 0 -55 4 -44 34 8 20 37 20 75 1 22 -12
34 -13 49 -5 24 13 25 35 5 84 -9 20 -13 41 -10 46 10 16 85 12 91 -5z m-1121
-821 c67 -19 850 -54 1180 -54 156 0 333 20 390 44 49 21 49 21 42 -11 -4 -16
-22 -102 -42 -193 -83 -386 -134 -693 -170 -1040 -14 -135 -32 -269 -41 -298
-16 -55 -31 -67 -99 -79 -26 -4 -33 -1 -42 20 -6 13 -45 61 -87 105 l-75 80
17 52 c13 42 22 54 50 66 28 11 33 18 30 40 -4 39 -31 53 -66 34 -20 -12 -35
-36 -56 -93 -22 -57 -34 -77 -48 -77 -16 0 -18 9 -18 78 0 43 3 81 6 85 3 3
16 2 28 -3 31 -11 56 6 56 38 0 34 -16 52 -48 52 -34 0 -57 -15 -81 -54 -17
-28 -21 -49 -21 -128 0 -87 -2 -96 -24 -117 l-25 -23 -37 28 c-21 16 -75 58
-120 94 -167 133 -281 172 -392 136 -54 -18 -133 -81 -163 -130 l-18 -29 -5
24 c-13 58 -105 705 -146 1028 -26 207 -36 265 -57 335 -4 15 -2 18 13 11 11
-4 41 -14 69 -21z m447 -1298 c50 -15 137 -71 242 -155 l69 -55 -34 -26 c-18
-14 -60 -49 -93 -78 -69 -59 -145 -92 -214 -92 -63 0 -157 25 -194 52 -32 22
-58 72 -58 111 0 51 31 125 71 171 44 50 67 65 114 77 44 10 48 10 97 -5z
m606 -248 c87 -90 104 -115 97 -137 -12 -38 -54 -44 -248 -37 -100 4 -196 10
-214 13 l-32 5 60 53 c58 51 86 67 142 80 16 3 47 23 70 45 23 22 47 40 53 40
7 0 39 -28 72 -62z m1851 -2065 c34 -128 71 -374 71 -475 l0 -68 -347 0 c-191
0 -408 5 -482 11 -104 9 -215 9 -471 -1 -184 -7 -415 -15 -512 -17 l-178 -5 0
172 c0 94 5 202 11 241 12 68 12 69 48 78 144 34 593 60 1081 61 270 1 592 18
606 33 4 4 42 7 85 7 l78 0 10 -37z m-8269 -53 c58 -6 179 -17 270 -25 91 -8
180 -18 198 -21 l32 -5 0 -148 0 -148 -247 -6 c-530 -14 -1018 -7 -1222 19
l-54 7 7 71 c3 39 9 117 13 174 l6 103 446 -6 c245 -3 493 -10 551 -15z m2480
-60 c124 -5 289 -12 368 -16 l142 -7 0 -66 c0 -36 3 -110 7 -163 l6 -98 -349
0 c-439 0 -1297 18 -1305 28 -9 9 18 313 28 323 19 19 639 18 1103 -1z m3040
-17 c4 -4 10 -89 14 -189 l6 -181 -338 -7 c-185 -4 -416 -9 -512 -11 -96 -2
-319 -7 -495 -10 -176 -2 -344 -8 -372 -11 l-53 -7 0 207 0 206 288 1 c158 1
334 5 392 9 136 10 1060 4 1070 -7z m-6315 -414 c101 -7 336 -9 723 -6 l572 6
0 -394 c0 -242 -4 -396 -10 -400 -5 -3 -94 -10 -197 -15 -103 -5 -267 -16
-363 -24 -261 -22 -806 -30 -900 -13 l-75 13 0 210 c0 115 4 307 9 427 l8 219
42 -6 c22 -3 109 -10 191 -17z m2649 -49 c237 -5 592 -10 789 -10 l358 0 -8
-92 c-10 -120 -10 -422 0 -562 l8 -108 -573 6 c-315 3 -681 9 -814 12 l-240 6
-12 112 c-27 241 -41 633 -24 650 4 4 25 5 46 1 22 -3 233 -10 470 -15z m3686
-62 c0 -18 38 -290 50 -368 10 -59 14 -99 24 -244 l3 -49 -446 9 c-245 5 -650
8 -898 7 l-453 -2 -4 22 c-6 27 -26 320 -33 478 l-5 117 48 5 c27 3 288 10
579 16 292 6 559 13 595 14 36 2 172 4 303 5 184 2 237 -1 237 -10z m2160 -26
c136 -7 149 -10 206 -39 34 -18 74 -43 90 -56 16 -13 71 -52 121 -86 51 -35
111 -84 132 -110 22 -26 58 -60 81 -76 l40 -28 0 -163 0 -164 -25 -6 c-32 -8
-775 3 -1065 15 -118 6 -362 13 -541 17 l-327 7 -6 91 c-4 50 -11 134 -16 186
-5 52 -14 149 -20 215 -6 66 -13 134 -16 151 l-4 31 222 8 c123 4 302 11 398
15 183 8 484 5 730 -8z m664 -63 c10 -103 8 -149 -8 -149 -8 0 -45 29 -81 65
-36 35 -91 78 -120 95 -30 17 -57 35 -60 41 -4 5 47 9 128 9 l134 0 7 -61z
m-3138 -705 l392 -6 6 -42 c3 -22 9 -151 12 -285 l7 -244 -104 6 c-119 7 -419
31 -659 53 -162 14 -651 33 -901 34 l-127 0 -6 138 c-3 75 -9 185 -12 244 l-6
107 138 4 c152 4 650 0 1260 -9z m-4729 -131 c-4 -54 -7 -134 -7 -179 l0 -81
-212 -7 c-117 -4 -406 -12 -643 -18 -236 -5 -493 -13 -570 -16 -77 -4 -141 -7
-143 -6 -4 2 14 363 19 368 2 3 38 -2 79 -10 93 -18 617 -11 895 12 192 16
420 30 524 33 l64 1 -6 -97z m2028 84 l480 -2 7 -115 c3 -63 9 -143 12 -176
l6 -61 -67 -6 c-38 -4 -228 -12 -424 -18 -269 -9 -388 -9 -490 0 -74 6 -251
11 -395 11 l-261 0 -6 173 c-3 94 -8 181 -13 191 -7 19 0 19 332 12 186 -3
555 -7 819 -9z m4790 -39 c160 -7 462 -13 673 -13 l382 0 0 -165 c0 -91 3
-174 6 -186 6 -21 4 -21 -283 -27 -158 -3 -351 -10 -428 -16 -326 -24 -511
-32 -868 -38 l-377 -6 0 238 1 237 302 -5 c166 -3 433 -11 592 -19z"/>
<path d="M10633 14551 c-49 -13 -81 -37 -87 -68 -9 -45 -25 -270 -37 -513 -11
-230 -10 -260 18 -580 19 -226 14 -488 -16 -745 -32 -284 -51 -652 -52 -1003
0 -443 15 -533 93 -544 18 -3 274 -6 568 -7 294 -1 645 -6 780 -11 1043 -40
1729 -35 1897 15 74 22 77 31 64 189 -33 393 -40 1047 -16 1536 40 810 40
1470 1 1619 -21 83 -35 91 -167 103 -121 12 -1199 17 -1724 8 -165 -3 -523 -2
-795 2 -272 4 -510 4 -527 -1z m1137 -114 c1074 6 1771 5 1859 -3 104 -9 105
-9 115 -39 19 -55 13 -1122 -8 -1525 -26 -489 -18 -1259 16 -1645 3 -28 0 -30
-42 -38 -103 -18 -1093 -20 -1604 -2 -275 9 -730 20 -1011 23 l-510 7 -8 70
c-5 39 -6 246 -4 460 6 387 23 696 53 922 24 184 29 545 10 751 -20 214 -20
512 -1 787 8 116 15 215 15 222 0 6 8 14 18 17 9 3 202 2 427 -2 226 -4 529
-6 675 -5z"/>
<path d="M10930 14360 c-94 -10 -126 -24 -140 -64 -23 -65 -29 -244 -17 -509
15 -329 14 -724 -2 -887 -6 -69 -24 -204 -39 -300 -27 -174 -27 -179 -26 -670
0 -272 4 -516 8 -543 14 -89 -62 -82 951 -83 489 -1 1032 -6 1205 -12 385 -14
694 -17 710 -7 7 4 19 24 28 44 25 55 29 597 7 938 -12 190 -16 393 -15 767 0
280 3 512 5 516 3 5 5 167 5 361 1 373 -2 408 -43 426 -15 7 -307 10 -872 8
-468 -2 -920 0 -1005 5 -250 13 -679 19 -760 10z m731 -121 l356 -12 7 -91 c3
-50 9 -234 13 -408 5 -282 4 -318 -9 -318 -26 0 -168 49 -265 92 l-91 40 -65
-36 c-200 -112 -442 -134 -603 -56 -108 53 -111 57 -119 206 -7 124 0 449 12
546 l5 47 102 3 c121 4 193 2 657 -13z m1837 -219 c2 -118 0 -279 -3 -358 l-7
-143 -37 -25 c-110 -75 -298 -115 -454 -97 -118 14 -190 42 -256 98 -29 25
-61 45 -72 45 -10 0 -48 -20 -83 -44 -57 -39 -159 -86 -186 -86 -14 0 -13 417
2 637 l12 183 495 3 c273 1 516 2 541 2 l45 0 3 -215z m-1202 143 c-5 -45 -21
-766 -25 -1135 l-1 -48 -64 0 -64 0 2 523 c0 287 -3 566 -7 620 l-8 97 87 0
86 0 -6 -57z m-506 -791 c52 -22 128 -48 168 -58 l72 -18 0 -153 0 -153 -47 0
c-27 0 -118 5 -203 10 -170 11 -787 14 -849 4 l-38 -6 5 183 c2 101 5 185 7
187 1 1 28 -9 60 -23 72 -32 178 -55 254 -55 124 0 343 56 426 109 17 11 35
18 40 16 6 -2 53 -22 105 -43z m923 4 c180 -119 497 -126 718 -16 l59 29 0
-190 0 -189 -132 0 c-73 0 -236 -7 -363 -15 -348 -23 -604 -28 -610 -13 -2 7
-1 80 3 161 l7 148 84 29 c46 15 104 42 130 58 25 17 47 31 49 31 1 1 26 -14
55 -33z m-868 -491 c504 -26 717 -29 1005 -11 146 10 347 20 448 23 l182 6 0
-74 0 -74 -1192 2 c-656 1 -1244 5 -1306 9 -110 6 -114 7 -108 28 3 11 6 38 6
58 l0 37 63 4 c168 9 652 5 902 -8z m-672 -235 l207 0 -44 -55 c-80 -98 -81
-160 -4 -263 29 -38 41 -66 45 -102 7 -62 -6 -65 -44 -8 -38 57 -66 70 -129
64 -61 -7 -171 -40 -198 -59 -32 -24 -13 -57 71 -123 43 -34 89 -67 102 -74
29 -15 94 -8 145 16 20 10 37 16 39 13 3 -2 7 -33 11 -68 l6 -64 -63 7 c-34 4
-99 14 -144 23 -137 26 -153 11 -134 -119 14 -88 40 -410 34 -420 -4 -8 -235
0 -243 9 -11 10 -21 453 -17 708 5 237 23 457 43 514 3 10 17 12 57 7 28 -3
145 -6 260 -6z m807 -7 l63 -6 -6 -426 c-4 -347 -9 -457 -26 -591 -12 -91 -21
-173 -21 -182 0 -16 -13 -18 -141 -18 -119 0 -140 2 -136 14 3 8 11 82 17 163
6 81 19 182 27 223 19 89 19 109 0 127 -17 18 -91 19 -191 3 -42 -7 -79 -11
-82 -8 -8 8 -8 170 0 206 9 39 19 40 63 6 49 -37 101 -56 134 -49 37 8 133
111 194 209 46 75 47 77 30 102 -14 22 -22 25 -48 19 -18 -4 -86 -10 -153 -14
-89 -5 -128 -11 -147 -24 l-27 -17 10 26 c23 60 1 138 -60 207 l-32 37 234 0
c130 0 263 -3 298 -7z m1496 -6 c3 -3 15 -154 26 -334 19 -324 23 -892 6 -909
-6 -6 -1034 13 -1093 20 -19 3 -20 13 -26 142 -4 76 -7 351 -8 611 l-1 472 38
4 c56 7 1051 2 1058 -6z m-1209 -465 c1 -257 5 -532 9 -611 l6 -144 -86 5
c-47 2 -88 6 -90 9 -2 2 5 81 16 174 17 139 22 248 25 603 l5 432 56 0 57 0 2
-468z m-483 156 c-30 -51 -109 -138 -126 -138 -25 0 -88 48 -88 67 0 8 7 27
15 43 14 27 19 29 88 33 39 1 82 4 95 5 16 1 21 -2 16 -10z m-577 -463 c100
-19 259 -19 360 0 111 21 117 21 109 -12 -5 -21 -44 -383 -46 -425 0 -5 -105
-8 -234 -8 l-233 0 -7 46 c-3 26 -6 72 -6 103 0 31 -7 111 -15 176 -17 134
-17 135 -11 135 2 0 40 -7 83 -15z"/>
<path d="M4845 14501 c-195 -10 -239 -20 -261 -63 -29 -55 -44 -187 -54 -451
-9 -270 2 -975 20 -1252 31 -470 32 -535 27 -895 -4 -206 -11 -447 -18 -534
-13 -184 -9 -200 48 -215 192 -50 879 -61 2418 -40 675 9 844 14 862 25 31 20
52 97 64 244 12 139 7 378 -19 860 -13 251 -17 511 -17 1280 0 531 -4 973 -8
982 -16 32 -75 49 -205 60 -97 8 -285 6 -787 -7 -547 -14 -732 -15 -1085 -6
-709 18 -819 19 -985 12z m1325 -124 c250 -1 635 3 855 8 411 10 668 10 742 0
l42 -6 -6 -822 c-5 -748 -4 -866 17 -1317 21 -480 25 -1011 6 -1051 -6 -14
-65 -17 -554 -23 -1505 -17 -1730 -18 -2067 -7 -297 10 -534 25 -540 34 -1 1
3 52 8 112 14 169 14 1135 0 1290 -24 248 -35 706 -30 1170 4 428 14 586 35
607 5 5 85 11 178 14 93 4 170 7 171 8 1 0 156 -3 345 -7 188 -4 548 -9 798
-10z"/>
<path d="M4863 14217 c-31 -34 -40 -57 -57 -143 -39 -196 -47 -677 -20 -1209
9 -170 18 -569 20 -885 3 -335 8 -590 14 -611 13 -47 50 -65 159 -80 83 -11
258 -9 826 9 182 6 668 13 1082 15 680 4 754 6 777 21 34 22 53 53 60 101 10
60 -23 1743 -45 2300 -16 408 -22 438 -106 481 l-42 21 -1324 1 -1324 1 -20
-22z m796 -93 c7 -6 -39 -318 -64 -439 -53 -252 -117 -547 -141 -647 l-26
-108 -91 0 c-51 0 -171 -5 -267 -10 -96 -5 -177 -7 -180 -4 -10 10 -16 553 -9
784 7 226 21 366 39 416 l9 23 363 -6 c200 -3 365 -7 367 -9z m1850 -36 c26
-130 51 -590 51 -944 l0 -181 -232 -8 c-128 -4 -248 -8 -267 -9 l-34 -1 -38
168 c-21 93 -61 252 -88 355 -75 280 -81 313 -88 490 l-6 162 199 1 c109 1
242 5 294 9 52 3 118 7 147 8 l52 2 10 -52z m-1476 -46 c4 -48 10 -321 13
-605 l7 -517 -125 0 c-69 0 -186 3 -260 6 l-135 7 18 71 c10 39 35 148 54 241
20 94 49 226 65 295 29 121 72 372 86 495 11 98 6 95 148 95 l123 0 6 -88z
m245 -511 l4 -599 -54 -4 c-29 -2 -55 -2 -58 0 -3 2 -8 234 -12 515 -4 282 -9
549 -10 594 l-3 82 40 4 c22 2 51 4 65 5 l25 2 3 -599z m422 512 c0 -173 24
-314 95 -579 61 -222 128 -515 120 -523 -4 -3 -123 -8 -266 -10 l-259 -3 -2
448 c-3 479 -1 721 7 742 3 9 44 12 155 12 l150 0 0 -87z m860 -1222 c0 -16 3
-42 6 -58 l6 -30 -474 -7 c-260 -4 -781 -11 -1158 -16 -377 -4 -721 -13 -765
-18 -74 -9 -198 -16 -252 -13 -21 1 -23 6 -23 60 l0 59 98 8 c53 4 338 7 632
6 515 -3 1331 12 1570 27 63 4 170 8 238 9 l122 2 0 -29z m-557 -237 c21 -43
87 -134 139 -191 l38 -42 -34 -95 c-19 -52 -49 -127 -66 -168 -73 -168 -83
-198 -106 -299 -13 -59 -44 -151 -68 -205 -24 -55 -46 -111 -49 -125 -7 -26
-7 -26 -134 -32 -171 -9 -301 -9 -306 1 -7 10 -32 1161 -26 1166 3 3 119 9
259 14 140 5 273 10 296 10 37 2 42 -1 57 -34z m565 -66 l3 -96 -67 -7 c-92
-10 -240 -1 -261 16 -22 19 -133 168 -133 180 0 6 92 8 228 7 l227 -3 3 -97z
m-1505 -85 c15 -363 4 -989 -16 -1010 -1 -1 -94 -4 -207 -8 l-205 -8 -46 74
c-60 97 -91 193 -134 414 -20 99 -52 225 -71 280 -19 55 -42 125 -51 155 -8
30 -19 62 -24 71 -6 12 0 27 23 55 17 22 46 63 65 92 l34 52 313 0 313 0 6
-167z m220 -225 c4 -216 10 -482 14 -590 l6 -198 -73 0 -72 0 6 28 c9 37 26
564 21 627 -3 28 -7 157 -10 288 l-5 237 53 0 54 0 6 -392z m-1008 345 c-16
-21 -44 -55 -64 -75 l-35 -38 -132 0 -132 0 -4 59 -3 59 110 7 c61 4 139 11
175 15 36 4 76 8 89 9 l23 1 -27 -37z m-12 -190 l15 -38 -142 -8 c-77 -5 -165
-6 -193 -2 -52 6 -53 7 -53 41 l0 34 128 -6 c72 -3 144 -2 167 4 61 15 62 15
78 -25z m2325 -25 c-3 -32 -5 -33 -68 -44 -80 -15 -192 -16 -243 -5 -47 11
-46 10 -40 43 l5 28 112 -5 c61 -3 134 -2 161 3 78 15 77 15 73 -20z m-2320
-145 c41 -105 47 -132 87 -329 42 -211 84 -343 130 -411 19 -29 30 -55 25 -58
-14 -9 -497 -9 -547 -1 l-43 8 0 398 c0 218 -3 412 -6 429 l-7 32 59 -6 c33
-3 100 -1 149 3 50 5 98 10 107 11 12 1 25 -20 46 -76z m2137 31 c39 3 93 8
121 12 l50 6 12 -398 c8 -255 9 -401 3 -407 -10 -10 -616 -5 -626 5 -3 3 17
56 44 119 28 64 54 143 60 180 12 76 36 146 81 244 25 56 65 156 95 242 3 8
15 8 47 1 24 -5 75 -7 113 -4z"/>
<path d="M10260 9704 c-389 -16 -517 -32 -553 -71 -8 -10 -20 -45 -26 -78 -37
-209 -46 -1139 -17 -1675 11 -190 20 -563 24 -940 8 -699 3 -654 82 -693 45
-22 46 -22 515 -19 259 2 625 8 815 13 555 16 2508 23 2885 10 305 -10 332 -9
365 7 68 33 65 -6 63 982 -2 487 -7 1009 -13 1160 -14 382 -50 1118 -56 1156
-19 121 -231 157 -789 133 -395 -17 -1338 -16 -1665 1 -209 11 -1440 21 -1630
14z m1405 -119 c631 -25 1320 -29 1795 -12 441 17 640 12 729 -18 l47 -15 22
-473 c13 -259 27 -591 32 -737 14 -385 17 -1957 5 -1968 -6 -6 -94 -6 -230 0
-265 12 -2583 3 -3065 -11 -560 -16 -1164 -18 -1182 -3 -13 10 -16 98 -21 660
-3 407 -12 756 -22 942 -26 448 -11 1577 20 1608 9 9 188 23 395 31 357 13
1072 11 1475 -4z"/>
<path d="M10789 9496 c-3 -3 -198 -8 -434 -11 -284 -3 -432 -9 -441 -16 -35
-29 -39 -76 -38 -494 1 -382 11 -729 34 -1190 5 -104 13 -422 16 -705 l7 -515
31 -31 c63 -63 145 -66 561 -16 213 25 238 26 825 27 1192 2 2276 -11 2533
-29 300 -21 304 -20 331 80 25 89 36 899 16 1249 -5 94 -14 395 -20 670 -11
550 -25 839 -39 879 -6 14 -25 33 -43 42 -30 16 -47 16 -218 3 -103 -7 -311
-13 -470 -12 -284 1 -404 6 -1250 44 -431 20 -1389 37 -1401 25z m354 -303 c3
-109 13 -268 23 -353 17 -145 27 -653 14 -662 -3 -2 -141 -2 -306 0 l-301 3
-8 267 c-13 445 -11 531 15 739 l24 192 150 4 c83 1 203 4 267 5 l116 2 6
-197z m607 182 c206 -7 561 -22 701 -31 l106 -6 6 -236 c4 -131 10 -309 13
-397 5 -154 5 -159 -11 -128 -17 32 -83 73 -119 73 -9 0 -31 -7 -48 -16 -28
-15 -31 -14 -52 5 -15 14 -36 21 -60 21 -31 0 -46 -7 -77 -39 -34 -34 -39 -45
-39 -84 0 -36 -4 -47 -18 -51 -18 -6 -33 -29 -46 -70 -9 -26 10 -90 33 -110
10 -10 33 -18 49 -18 25 -1 31 -6 36 -29 5 -27 13 -38 49 -62 12 -8 16 -19 11
-30 -5 -15 -25 -17 -188 -17 l-182 0 -31 42 -30 42 33 43 c42 55 58 129 44
201 -22 117 -75 161 -140 115 -15 -11 -44 -18 -75 -18 -44 0 -52 -3 -70 -31
-14 -21 -33 -35 -62 -42 -47 -13 -79 -57 -68 -92 5 -15 0 -22 -19 -30 -22 -8
-26 -16 -26 -47 0 -31 7 -44 50 -84 27 -26 65 -54 84 -63 45 -21 121 -20 173
3 l42 19 15 -23 c9 -14 16 -27 16 -30 0 -7 -117 -6 -270 1 l-125 7 0 613 0
614 65 -5 c36 -2 139 -7 230 -10z m-407 -117 c9 -156 9 -693 0 -915 -6 -168
-7 -173 -28 -173 -21 0 -21 1 -17 213 3 166 -1 258 -18 422 -11 116 -24 292
-27 393 l-6 182 45 0 45 0 6 -122z m-853 107 c0 -3 -12 -98 -26 -213 -21 -169
-24 -233 -20 -347 3 -77 8 -248 12 -381 l6 -241 -143 -6 c-79 -4 -181 -7 -225
-7 l-82 0 -6 33 c-3 17 -9 285 -12 594 l-7 562 149 4 c82 1 195 4 252 5 56 1
102 0 102 -3z m2294 -67 c3 -18 9 -279 12 -580 l7 -548 -41 0 c-40 0 -41 0
-46 43 -10 77 -46 888 -46 1040 l0 77 54 0 c53 0 54 -1 60 -32z m478 16 l177
-6 15 -52 c9 -28 26 -97 38 -154 21 -99 21 -109 9 -297 -11 -156 -11 -216 -1
-307 13 -114 11 -280 -2 -294 -4 -4 -108 -10 -230 -15 -123 -4 -252 -9 -288
-11 l-65 -3 -6 560 c-3 308 -7 565 -9 570 -5 21 2 22 93 19 50 -2 172 -7 269
-10z m799 -6 c10 -15 18 -187 24 -493 3 -148 8 -348 11 -442 l6 -173 -240 0
-239 0 -8 188 c-11 251 -11 271 -1 467 8 164 7 174 -18 285 -15 63 -29 127
-33 143 l-5 27 103 1 c57 1 151 5 209 9 117 8 181 4 191 -12z m-1745 -773 c29
-77 70 -83 97 -14 17 42 44 52 67 24 15 -18 1 -40 -31 -50 -45 -15 -48 -80 -4
-91 32 -8 62 -41 48 -55 -7 -7 -22 -6 -48 5 -70 30 -90 19 -86 -46 2 -36 1
-38 -30 -38 -28 0 -31 3 -25 23 17 59 18 83 1 97 -14 11 -22 12 -48 1 -64 -25
-67 -25 -67 3 0 24 3 26 43 25 24 -1 49 1 55 5 17 10 15 51 -4 66 -30 26 -37
50 -18 71 25 27 30 24 50 -26z m287 -322 l6 -53 -47 0 c-26 0 -91 -3 -145 -7
-85 -5 -97 -4 -92 9 3 8 24 21 46 27 27 8 46 22 57 42 14 24 24 29 54 29 25 0
46 8 65 24 24 21 28 32 28 74 0 34 -6 56 -18 69 -17 19 -16 22 5 66 l23 47 7
-138 c3 -75 9 -161 11 -189z m-759 275 c17 -63 2 -134 -37 -177 -26 -28 -93
-60 -126 -61 -27 0 -100 42 -83 48 26 8 33 41 17 71 -8 17 -15 35 -15 41 0 15
21 12 41 -6 12 -11 27 -14 44 -10 22 6 25 12 26 54 0 36 2 42 9 26 13 -33 48
-37 76 -9 13 13 24 29 24 35 0 19 18 10 24 -12z m2266 -447 l0 -49 -1387 -7
c-1233 -7 -2683 1 -2696 15 -3 3 -7 16 -9 30 l-3 25 230 8 c261 9 942 2 1205
-13 273 -15 937 -12 1305 6 334 16 796 29 1158 32 l197 2 0 -49z m-3861 -165
c106 -3 196 -7 199 -10 3 -3 -2 -57 -11 -119 -23 -151 -22 -201 10 -358 24
-122 26 -152 25 -335 -2 -206 2 -240 53 -400 6 -20 1 -21 -112 -33 -169 -17
-316 -25 -345 -18 l-25 7 -6 532 c-4 293 -10 581 -13 640 -7 101 -6 107 12
103 10 -2 106 -6 213 -9z m3221 -131 c0 -79 7 -174 16 -227 26 -151 31 -280
18 -433 -7 -77 -13 -173 -14 -213 0 -54 -6 -88 -25 -132 -14 -33 -25 -66 -25
-75 0 -13 -32 -15 -245 -15 -135 0 -245 3 -245 8 0 4 -9 203 -20 442 -11 239
-20 513 -20 608 l0 172 280 0 280 0 0 -135z m653 -17 c16 -352 6 -879 -19
-1071 -6 -48 -6 -49 -38 -43 -17 3 -139 13 -271 22 -132 9 -241 17 -243 19 -2
2 6 22 18 46 18 34 25 78 38 238 21 257 19 395 -7 564 -20 132 -28 327 -15
361 5 14 38 16 269 16 l262 0 6 -152z m-2952 -125 c0 -148 4 -416 8 -598 5
-181 8 -331 7 -332 0 -1 -82 -4 -181 -8 -99 -4 -218 -11 -265 -16 -46 -5 -88
-5 -92 -1 -3 4 -19 43 -34 87 -28 78 -28 86 -29 305 -1 200 -4 240 -28 363
-31 159 -33 200 -12 317 8 47 15 100 15 118 l0 32 305 0 305 0 1 -267z m169
-105 c1 -363 4 -434 31 -700 7 -70 10 -130 7 -133 -3 -4 -21 -3 -40 0 l-35 7
-6 166 c-4 92 -10 362 -13 600 l-7 432 31 0 32 0 0 -372z m249 360 c15 -9 28
-9 59 1 42 14 62 9 62 -14 0 -8 20 -20 48 -27 37 -11 48 -19 50 -37 3 -21 1
-23 -20 -17 -65 19 -86 19 -97 -2 -8 -15 -7 -29 5 -57 12 -28 12 -40 3 -51
-22 -27 -39 -16 -39 24 0 68 -35 80 -87 30 -32 -31 -33 -31 -48 -12 -19 25
-18 30 1 46 71 57 75 77 23 104 -16 8 -29 17 -29 19 0 10 51 5 69 -7z m370
-20 c21 -64 42 -280 29 -293 -16 -16 -59 11 -84 52 -14 25 -35 54 -46 65 -20
20 -20 20 1 34 11 8 26 32 32 54 10 33 9 44 -8 79 l-20 41 42 0 c40 0 44 -3
54 -32z m212 27 c4 -3 -3 -49 -16 -102 -12 -54 -28 -126 -35 -160 -13 -62 -13
-63 -46 -63 l-34 0 0 86 c0 47 -6 109 -14 137 -8 29 -17 64 -20 78 l-6 27 82
0 c45 1 85 -1 89 -3z m184 -5 c-3 -5 -12 -10 -19 -10 -35 0 -86 -93 -86 -159
0 -27 -10 -54 -32 -89 -35 -54 -73 -71 -63 -29 2 12 18 83 35 156 16 74 30
136 30 138 0 2 32 3 71 3 44 0 68 -4 64 -10z m445 -182 c0 -106 7 -335 15
-508 8 -173 15 -358 16 -410 l2 -95 -47 -3 -46 -3 -2 293 c-2 161 -3 434 -3
605 l0 313 33 0 32 0 0 -192z m-260 102 c0 -22 -29 -78 -51 -99 -17 -16 -35
-21 -75 -21 -66 0 -84 7 -84 32 0 30 29 78 53 88 31 12 157 12 157 0z m89
-897 l1 -233 -175 0 c-96 0 -175 2 -175 5 0 3 18 42 40 86 23 44 55 121 72
172 52 155 32 252 -73 364 -27 28 -49 57 -49 62 0 6 14 33 31 60 41 68 48 112
20 140 -12 12 -34 21 -51 21 -34 0 -37 6 -14 31 16 17 18 17 48 1 43 -23 160
-23 203 1 47 25 82 66 96 112 10 34 13 -5 18 -275 4 -173 7 -420 8 -547z
m-799 732 l31 -45 -29 0 c-39 0 -74 -30 -74 -62 0 -14 16 -49 36 -79 20 -30
36 -63 36 -74 -1 -12 -17 -31 -40 -47 -53 -37 -107 -112 -126 -177 -28 -94
-16 -146 102 -454 6 -16 -4 -17 -132 -15 l-139 3 -6 75 c-4 41 -12 120 -18
175 -17 146 -26 746 -11 722 17 -27 73 -48 109 -41 21 4 31 3 31 -5 0 -22 64
-41 103 -30 36 10 87 59 87 85 0 22 7 17 40 -31z m360 -182 c0 -2 -9 -17 -20
-35 -35 -59 -28 -86 50 -175 38 -44 74 -92 80 -107 15 -39 12 -98 -6 -153 -27
-82 -127 -284 -145 -294 -20 -10 -201 -11 -238 0 -20 5 -34 32 -83 156 -32 83
-61 168 -65 190 -11 83 38 173 122 225 18 11 38 33 45 50 12 29 10 100 -3 130
-6 13 11 15 128 15 74 0 135 -1 135 -2z"/>
<path d="M5849 10050 c-164 -21 -370 -100 -489 -189 -130 -97 -240 -230 -296
-358 -29 -64 -55 -178 -76 -323 -18 -132 -18 -1084 1 -1150 27 -92 87 -139
212 -167 91 -19 244 -21 919 -9 370 7 550 6 672 -3 146 -11 171 -10 197 3 53
28 64 99 50 311 -6 88 -12 347 -14 575 -3 435 -10 522 -55 688 -74 270 -272
458 -590 560 -179 57 -383 81 -531 62z m266 -121 c169 -21 356 -87 481 -171
165 -110 250 -256 291 -498 12 -74 16 -182 18 -490 1 -217 8 -486 15 -598 7
-111 11 -205 8 -207 -2 -2 -62 0 -134 5 -179 13 -655 12 -1049 -1 -450 -16
-587 -1 -632 68 -17 25 -18 67 -18 548 0 674 13 778 123 955 96 155 273 291
460 350 147 47 275 59 437 39z"/>
<path d="M5840 9843 c-206 -21 -391 -110 -518 -247 -138 -150 -190 -467 -179
-1103 5 -343 8 -358 57 -395 61 -45 106 -49 690 -61 305 -7 630 -12 722 -12
161 0 167 1 192 24 15 14 29 43 36 74 20 95 31 495 20 746 -10 243 -25 363
-60 488 -76 272 -240 416 -525 462 -157 25 -333 35 -435 24z m396 -138 c294
-42 421 -175 479 -505 27 -150 39 -522 27 -796 -7 -135 -15 -250 -18 -256 -5
-8 -74 -9 -233 -4 -124 4 -435 11 -691 16 -256 4 -478 12 -495 17 -30 9 -30
11 -38 99 -13 144 -1 741 18 874 33 236 63 308 165 403 85 78 200 139 295 156
33 6 71 13 85 15 44 8 302 -4 406 -19z"/>
<path d="M6796 7536 c-90 -33 -140 -124 -138 -249 2 -155 60 -206 232 -207 84
0 133 14 175 51 84 74 76 238 -17 330 -69 69 -178 102 -252 75z m124 -126 c62
-32 97 -94 85 -150 -11 -52 -28 -60 -118 -60 -45 0 -87 4 -93 8 -17 11 -27
114 -14 148 16 42 50 74 77 74 13 0 41 -9 63 -20z"/>
<path d="M5393 5848 c-39 -19 -48 -62 -46 -213 3 -159 10 -178 78 -203 45 -17
236 -20 640 -12 161 4 267 1 352 -9 146 -17 163 -11 182 63 17 68 15 296 -4
323 -31 44 -103 50 -785 57 -262 3 -402 1 -417 -6z m1005 -124 l92 -6 0 -100
0 -100 -27 6 c-98 20 -323 26 -528 15 -215 -11 -447 -10 -459 2 -4 3 -9 49
-13 102 l-6 97 424 -5 c233 -3 466 -8 517 -11z"/>
<path d="M8244 7081 c-28 -13 -45 -28 -52 -48 -8 -24 -16 -30 -40 -30 -38 0
-80 -27 -92 -59 -25 -63 -1 -143 49 -163 27 -12 31 -18 31 -51 0 -85 107 -114
177 -48 l22 20 27 -21 c84 -66 217 27 169 118 -13 27 -14 32 -1 37 8 3 20 19
27 36 11 26 10 35 -6 65 -19 35 -88 83 -119 83 -9 0 -21 11 -26 25 -10 27 -63
55 -102 55 -13 0 -42 -9 -64 -19z m91 -88 c-4 -10 -9 -35 -12 -55 -5 -34 -3
-38 21 -44 21 -5 33 -1 52 17 20 19 29 21 52 13 38 -13 31 -27 -22 -42 -73
-21 -72 -67 2 -97 35 -15 39 -37 8 -43 -11 -2 -34 14 -60 43 -56 61 -84 60
-106 -5 -9 -26 -23 -46 -33 -48 -23 -5 -21 6 8 53 30 49 31 71 5 85 -15 8 -30
8 -54 -1 -41 -15 -66 -7 -66 21 0 29 24 35 68 17 52 -21 74 -8 72 41 -3 61 -2
62 36 62 30 0 35 -3 29 -17z"/>
</g>
</svg>
