<?xml version="1.0" standalone="no"?>
<!DOCTYPE svg PUBLIC "-//W3C//DTD SVG 20010904//EN"
 "http://www.w3.org/TR/2001/REC-SVG-20010904/DTD/svg10.dtd">
<svg version="1.0" xmlns="http://www.w3.org/2000/svg"
 width="252.000000pt" height="200.000000pt" viewBox="0 0 252.000000 200.000000"
 preserveAspectRatio="xMidYMid meet">
<metadata>
Created by potrace 1.13, written by Peter Selinger 2001-2015
</metadata>
<g transform="translate(0.000000,200.000000) scale(0.100000,-0.100000)"
fill="#000000" stroke="none">
<path d="M453 1692 c-175 -122 -326 -231 -336 -240 -17 -17 -16 -20 15 -55 19
-21 48 -40 68 -45 l35 -8 9 -164 8 -164 -43 -41 c-24 -22 -75 -68 -113 -101
l-69 -61 13 -62 13 -61 39 0 40 0 -8 -254 -7 -254 29 -5 c16 -3 59 -9 95 -12
l66 -6 89 71 c63 50 95 69 109 65 11 -2 53 -5 93 -5 l72 0 0 -63 0 -64 130
-11 129 -12 148 96 148 96 275 -6 c151 -3 365 -9 475 -12 l200 -6 104 74 104
74 1 49 c1 28 3 98 4 158 1 82 5 107 15 107 8 0 22 9 32 20 21 23 23 21 -98
174 l-67 86 -155 0 -155 0 0 158 0 158 32 9 c24 8 36 20 49 51 l17 42 -195
223 -196 224 -448 0 -448 0 -318 -223z m1192 177 c4 -6 5 -12 4 -13 -2 -2
-172 -8 -378 -15 -352 -11 -376 -10 -400 6 -26 18 -23 18 124 23 295 11 644
10 650 -1z m-592 -229 l268 -220 77 0 c42 0 195 5 340 11 145 6 266 9 269 5 3
-3 1 -12 -5 -19 -9 -10 -97 -18 -351 -32 l-339 -18 -253 209 c-140 116 -260
214 -267 218 -8 5 -124 -66 -318 -194 -237 -157 -308 -200 -317 -190 -9 9 -7
15 8 26 11 7 151 105 310 218 160 112 295 204 300 205 6 0 131 -98 278 -219z
m770 29 c76 -88 140 -165 143 -173 4 -11 -40 -14 -228 -20 -128 -4 -269 -9
-313 -12 l-80 -6 -185 152 c-102 84 -196 161 -209 171 -13 11 -22 21 -20 24 5
5 474 21 644 23 l110 1 138 -160z m-1023 82 c0 -5 -111 -84 -247 -177 -329
-226 -300 -208 -325 -197 -18 8 17 34 263 196 156 103 289 187 296 187 7 0 13
-4 13 -9z m219 -182 l181 -151 0 -350 c0 -341 0 -350 20 -355 19 -5 20 -14 20
-179 0 -136 -3 -174 -13 -174 -7 0 -34 -14 -60 -30 -26 -17 -50 -30 -52 -30
-3 0 -5 155 -5 344 l0 344 -87 6 c-49 3 -235 8 -414 12 l-327 6 -7 166 c-6
135 -5 166 6 173 8 4 131 89 274 188 143 99 265 180 272 180 6 1 93 -67 192
-150z m254 -211 l30 -22 241 13 c133 7 274 15 314 18 l72 6 0 -160 0 -160 -67
-6 c-38 -4 -163 -7 -278 -7 l-211 0 -72 -97 -72 -97 0 267 c0 147 3 267 6 267
3 0 20 -10 37 -22z m967 -342 c0 -8 -83 -191 -90 -199 -8 -10 -491 -10 -731
-1 l-167 7 68 91 67 91 274 5 c450 9 579 10 579 6z m158 -183 c13 -18 20 -33
15 -33 -6 0 -37 34 -69 75 -32 41 -63 75 -69 75 -6 0 -31 -48 -56 -107 l-46
-108 -214 -3 c-118 -2 -332 0 -476 3 l-263 7 0 26 0 25 183 -7 c100 -3 313 -7
472 -8 l290 -2 18 35 c9 19 33 70 52 113 l35 79 52 -69 c28 -38 63 -84 76
-101z m-1641 138 c155 -4 285 -10 289 -14 4 -3 -19 -37 -52 -74 -32 -38 -59
-69 -60 -71 -3 -6 -627 0 -738 7 l-109 6 87 78 87 77 107 -1 c59 0 234 -4 389
-8z m1579 -182 c24 -35 24 -37 17 -179 l-8 -144 -75 -53 -75 -53 -6 67 c-4 38
-7 114 -8 169 -1 88 2 109 24 157 13 31 32 73 40 94 l16 38 25 -30 c14 -16 36
-46 50 -66z m-1236 -211 l0 -293 -76 -47 c-80 -51 -100 -58 -90 -32 3 9 6 122
6 252 l0 237 75 88 c42 48 78 87 80 87 3 0 5 -132 5 -292z m-202 197 c6 -3 12
-12 12 -21 0 -15 -25 -16 -292 -10 -432 9 -548 16 -548 31 0 10 84 12 408 8
224 -2 413 -6 420 -8z m-15 -51 c15 -3 27 -10 27 -16 0 -8 -44 -9 -142 -5 -79
4 -266 10 -415 13 -166 4 -273 11 -273 17 0 10 748 1 803 -9z m1277 -161 c0
-82 3 -165 6 -185 l7 -38 -100 0 -100 0 -7 53 c-3 28 -6 96 -6 150 l0 97 -220
2 c-121 1 -250 3 -287 3 l-68 0 4 -142 3 -143 -60 0 c-74 0 -72 -6 -72 198 l0
152 450 0 450 0 0 -147z m-1427 110 l189 -6 -7 -246 c-4 -135 -8 -246 -9 -247
0 0 -50 4 -109 9 l-108 10 2 146 c3 132 1 151 -17 186 -47 91 -165 129 -254
83 -88 -45 -130 -149 -130 -319 l0 -97 -62 5 c-35 3 -67 9 -71 13 -5 4 -6 115
-1 245 l7 238 191 -7 c105 -3 276 -9 379 -13z m1207 -68 c0 -13 -36 -15 -265
-15 -229 0 -265 2 -265 15 0 13 36 15 265 15 229 0 265 -2 265 -15z m-1450 3
c0 -2 -11 -25 -25 -52 -27 -53 -34 -141 -16 -204 9 -31 8 -33 -65 -93 l-74
-60 0 83 c0 158 44 268 122 307 39 19 58 25 58 19z m70 -135 c0 -71 -4 -133
-8 -140 -5 -7 -19 -9 -42 -4 -39 8 -47 26 -49 114 -2 75 40 157 81 157 17 0
18 -10 18 -127z m1378 75 c3 -17 -15 -18 -262 -18 -260 0 -266 0 -266 20 0 20
5 20 262 18 241 -3 263 -4 266 -20z m2 -58 c0 -19 -7 -20 -265 -20 -258 0
-265 1 -265 20 0 19 7 20 265 20 258 0 265 -1 265 -20z m0 -60 c0 -19 -7 -20
-265 -20 -258 0 -265 1 -265 20 0 19 7 20 265 20 258 0 265 -1 265 -20z m0
-60 c0 -19 -7 -20 -158 -20 -233 0 -372 10 -372 27 0 10 49 13 265 13 258 0
265 -1 265 -20z"/>
<path d="M683 1555 c-32 -32 -35 -40 -30 -76 6 -48 28 -74 72 -89 113 -37 175
134 68 189 -40 20 -73 13 -110 -24z m100 3 c50 -26 61 -77 26 -122 -38 -48
-120 -27 -134 34 -7 32 13 71 45 87 31 16 36 16 63 1z"/>
<path d="M436 1359 c-78 -18 -126 -81 -126 -164 0 -31 3 -35 25 -35 22 0 25
-4 25 -35 0 -28 -4 -35 -20 -35 -20 0 -27 -24 -12 -47 8 -13 266 -22 279 -10
4 4 1 22 -5 40 -19 52 -15 84 9 90 20 5 21 11 17 66 -5 68 -28 103 -85 127
-36 16 -51 16 -107 3z m119 -21 c50 -22 89 -147 51 -161 -20 -8 -26 2 -26 44
0 52 -33 89 -86 96 -74 10 -134 -43 -134 -117 0 -32 -26 -43 -36 -16 -8 21 13
90 37 120 33 42 137 60 194 34z m-57 -86 c3 -52 3 -52 38 -52 29 0 34 -3 34
-24 0 -19 -7 -25 -35 -30 -29 -6 -35 -11 -35 -31 0 -18 -5 -25 -20 -25 -15 0
-20 7 -20 25 0 23 -4 25 -45 25 -41 0 -45 2 -45 24 0 20 6 25 45 30 l45 7 0
48 c0 26 3 51 7 55 16 16 28 -4 31 -52z"/>
<path d="M920 1348 c-68 -19 -110 -82 -110 -165 0 -29 3 -33 25 -33 22 0 25
-4 25 -35 0 -29 -4 -35 -21 -35 -16 0 -20 -5 -17 -27 l3 -28 140 0 c157 0 143
-10 129 83 -6 38 -5 44 15 49 18 4 21 13 21 52 0 115 -88 174 -210 139z m149
-26 c29 -20 51 -69 51 -117 0 -28 -4 -35 -20 -35 -17 0 -20 7 -20 41 0 90
-110 134 -180 72 -22 -20 -33 -40 -37 -70 -5 -39 -26 -63 -38 -43 -12 19 9 94
34 123 48 52 151 67 210 29z m-69 -77 l0 -55 35 0 c30 0 35 -3 35 -24 0 -21
-6 -25 -32 -28 -28 -2 -34 -8 -36 -31 -3 -23 -8 -28 -25 -25 -16 2 -23 11 -25
31 -3 24 -7 27 -43 27 -35 0 -39 3 -39 25 0 23 4 25 45 25 l45 0 0 55 c0 48 2
55 20 55 18 0 20 -7 20 -55z"/>
<path d="M1571 1269 c-19 -21 -24 -41 -36 -151 l-6 -58 85 0 85 0 -5 98 c-5
80 -10 100 -26 115 -27 23 -73 22 -97 -4z m89 -9 c15 -15 20 -33 20 -79 l0
-59 -56 -7 c-69 -8 -77 0 -69 68 8 63 14 77 39 87 33 13 44 12 66 -10z"/>
<path d="M1764 1269 c-15 -16 -19 -36 -19 -85 0 -35 -3 -64 -7 -64 -5 0 -8
-12 -8 -26 l0 -27 75 5 c42 3 78 7 81 10 11 11 -20 183 -35 196 -23 19 -66 14
-87 -9z"/>
<path d="M1370 1267 c-33 -17 -50 -53 -50 -109 0 -25 -5 -48 -11 -50 -7 -2 -9
-13 -5 -26 7 -20 13 -22 92 -22 l86 0 -6 93 c-6 76 -10 95 -27 110 -25 20 -45
21 -79 4z m78 -19 c7 -7 12 -39 12 -75 l0 -63 -66 0 -67 0 6 56 c3 32 13 64
23 75 19 21 73 26 92 7z"/>
</g>
</svg>
