<?xml version="1.0" standalone="no"?>
<!DOCTYPE svg PUBLIC "-//W3C//DTD SVG 20010904//EN"
 "http://www.w3.org/TR/2001/REC-SVG-20010904/DTD/svg10.dtd">
<svg version="1.0" xmlns="http://www.w3.org/2000/svg"
 width="200.900000pt" height="122.500000pt" viewBox="0 0 287.000000 175.000000"
 preserveAspectRatio="xMidYMid meet">
<metadata>
Created by potrace 1.13, written by Peter Selinger 2001-2015
</metadata>
<g transform="translate(0.000000,175.000000) scale(0.100000,-0.100000)"
fill="#000000" stroke="none">
<path d="M1140 1541 l-275 -188 -53 48 c-29 27 -72 57 -95 68 -23 10 -57 30
-76 45 -19 14 -37 23 -40 20 -11 -11 74 -74 113 -85 49 -13 96 -59 96 -92 0
-32 -43 -70 -204 -180 -190 -130 -218 -154 -214 -185 3 -25 7 -27 55 -30 l53
-3 0 -280 0 -279 -41 0 c-60 0 -105 26 -141 81 -31 49 -31 49 -87 49 -114 0
-163 69 -130 180 10 32 9 42 -5 61 -19 28 -20 65 -2 98 11 21 11 30 -1 60 -22
53 -13 153 21 219 15 29 33 55 40 58 8 3 17 29 21 62 6 49 13 62 50 99 24 24
56 46 73 49 23 5 38 18 57 49 19 33 35 47 67 58 24 9 50 18 58 21 8 4 -7 4
-34 2 -42 -3 -55 -10 -100 -54 -28 -27 -68 -58 -89 -67 -45 -21 -85 -76 -98
-136 -6 -23 -25 -67 -44 -98 -54 -89 -58 -116 -46 -286 15 -192 15 -192 6
-241 -13 -72 42 -139 122 -150 65 -9 92 -25 124 -73 30 -44 31 -49 25 -123 -8
-95 -13 -108 -53 -143 l-33 -27 -9 24 c-5 13 -19 32 -31 43 -22 19 -22 19 -41
-5 l-19 -25 -19 24 c-10 13 -23 21 -29 17 -15 -9 -29 -60 -36 -128 l-6 -58
1257 1 c692 1 1269 4 1283 8 19 5 25 13 26 36 1 17 7 44 14 60 11 29 12 29 26
11 22 -30 29 -87 13 -97 -10 -6 -6 -9 13 -9 25 0 27 2 18 26 -14 35 -12 57 4
80 21 28 39 5 46 -59 5 -40 8 -47 15 -32 4 11 21 50 36 87 32 74 37 143 14
188 -13 25 -13 33 1 67 14 32 15 45 4 88 -15 60 -47 127 -66 138 -8 4 -14 16
-14 25 0 9 -13 40 -30 68 -36 63 -91 94 -168 94 -43 0 -57 5 -86 31 -20 17
-51 33 -73 36 -49 7 -63 19 -63 53 0 33 15 47 55 52 24 2 31 8 33 29 2 21 -8
34 -57 72 -33 26 -74 61 -91 78 l-30 31 0 135 c0 126 1 135 20 140 17 4 20 14
20 54 l0 49 -192 -2 -193 -3 -3 -37 c-3 -32 1 -39 27 -53 27 -13 31 -21 31
-56 0 -33 -3 -40 -16 -35 -8 3 -89 57 -180 118 -199 136 -326 218 -339 217 -5
0 -134 -84 -285 -188z m597 -34 c292 -195 619 -421 661 -457 27 -23 21 -40
-13 -40 -16 0 -173 99 -417 264 -426 285 -521 346 -542 346 -14 0 -306 -192
-751 -494 -126 -86 -235 -156 -241 -156 -24 0 -23 30 2 59 13 16 210 155 437
309 480 326 536 362 559 362 10 0 147 -87 305 -193z m66 -143 c418 -281 503
-341 513 -363 10 -21 18 -638 9 -720 -6 -51 -11 -64 -26 -68 -11 -3 -27 -22
-35 -42 -14 -33 -16 -34 -28 -18 -8 10 -24 16 -37 15 -16 -2 -27 5 -36 22 -17
35 -34 31 -58 -12 l-21 -37 -28 36 c-34 42 -46 32 -45 -37 l1 -45 11 32 c7 17
15 35 19 38 11 11 39 -54 36 -83 -2 -22 -9 -28 -34 -30 -46 -5 -75 24 -81 82
-5 38 -2 53 15 76 25 34 17 48 -13 20 -12 -11 -32 -18 -49 -17 -25 2 -33 -5
-55 -42 -42 -71 -48 -65 -56 66 -10 150 1 765 14 818 12 47 42 75 82 75 47 0
42 17 -18 65 -86 68 -412 284 -439 291 -19 5 -62 -21 -206 -122 -307 -214
-329 -234 -258 -234 33 0 44 -15 54 -74 12 -62 9 -892 -2 -912 -9 -16 -13 -12
-33 28 -19 40 -28 48 -66 58 -35 10 -46 10 -59 -1 -9 -7 -26 -18 -38 -24 -11
-6 -26 -25 -32 -44 l-10 -32 -29 36 c-33 44 -81 68 -108 54 -9 -6 -22 -7 -27
-4 -5 3 -18 -4 -29 -16 l-20 -21 -20 33 c-31 51 -35 99 -36 446 l0 322 30 31
c28 29 221 164 575 401 189 126 291 188 308 189 8 0 172 -106 365 -236z m444
200 c26 -7 40 -41 23 -58 -7 -7 -63 -11 -172 -10 -142 2 -163 4 -174 19 -9 13
-10 23 -3 36 9 17 23 19 157 19 81 0 157 -3 169 -6z m-27 -104 c13 -21 13
-237 0 -245 -11 -7 -155 86 -208 135 -29 26 -33 35 -30 72 4 52 18 58 141 55
65 -2 90 -6 97 -17z m-515 -339 c23 -5 30 -9 17 -10 -22 -1 -22 -3 -15 -73 10
-98 10 -914 0 -924 -29 -29 -37 67 -37 454 l0 302 -245 0 -245 0 -1 -342 c0
-189 -4 -361 -8 -383 l-8 -40 -7 55 c-4 30 -6 248 -4 485 3 463 4 470 55 478
52 8 458 6 498 -2z m75 -36 c16 -19 11 -931 -6 -959 -9 -15 -13 -16 -20 -5
-22 35 -33 964 -11 972 20 9 24 8 37 -8z m-650 -473 c0 -401 -2 -471 -15 -488
-15 -19 -15 -19 -30 0 -13 17 -15 71 -16 340 0 177 -4 384 -8 461 -5 77 -6
143 -4 148 2 4 20 7 39 7 l34 0 0 -468z m1333 225 c32 -25 52 -31 113 -37 64
-6 80 -12 105 -36 16 -16 36 -50 44 -77 8 -27 26 -60 40 -73 16 -14 25 -34 25
-52 0 -16 9 -37 20 -47 31 -28 33 -52 9 -95 -22 -39 -22 -41 -6 -75 24 -50 22
-136 -2 -166 l-19 -24 -27 25 c-22 21 -29 23 -46 12 -15 -10 -24 -10 -33 -3
-10 8 -21 5 -41 -11 -16 -12 -30 -18 -32 -13 -11 32 -20 37 -41 24 -19 -12
-24 -10 -47 11 -28 26 -47 20 -22 -8 22 -24 47 -86 47 -117 0 -31 -25 -33 -41
-3 l-12 22 -8 -23 c-7 -17 -15 -22 -36 -19 -27 3 -28 5 -25 51 3 40 -1 53 -26
85 -53 68 -55 76 -60 268 -6 246 4 411 26 417 27 7 54 -3 95 -36z m-803 -352
l0 -375 -232 2 -233 3 -3 373 -2 372 235 0 235 0 0 -375z m-1164 -139 c9 -49
-4 -96 -25 -96 -10 0 -22 -10 -28 -22 -7 -17 -19 -22 -51 -23 -23 -1 -42 1
-42 4 0 21 24 140 32 154 6 13 21 17 58 17 48 0 49 -1 56 -34z m1346 -264 c7
-7 8 -15 4 -19 -9 -10 -747 -17 -794 -8 -58 11 -30 30 54 36 134 11 724 3 736
-9z"/>
<path d="M588 853 c-14 -3 -18 -15 -18 -54 l0 -49 34 0 c62 0 88 -21 44 -35
-18 -5 -19 -8 -8 -12 27 -10 30 -26 30 -147 0 -118 0 -118 -22 -112 -13 3 -33
6 -45 6 -21 0 -22 4 -26 108 -2 97 -3 93 -5 -40 l-2 -148 215 0 215 0 0 239 0
238 -95 6 c-95 5 -160 -2 -137 -17 15 -9 16 -129 2 -157 -12 -21 -50 -25 -68
-7 -18 18 -16 142 3 158 8 7 15 16 15 21 0 9 -100 11 -132 2z m302 -94 c-5
-86 -22 -113 -65 -107 -18 3 -20 12 -23 96 l-3 92 48 0 48 0 -5 -81z m-112
-190 c4 -82 -9 -119 -41 -119 -38 0 -47 19 -47 97 0 79 11 95 60 90 24 -2 25
-6 28 -68z m185 -155 c24 -9 21 -21 -5 -28 -30 -8 -273 -8 -332 0 -47 7 -63
28 -28 38 23 7 343 -1 365 -10z"/>
<path d="M1850 615 l0 -245 213 2 212 2 -195 6 c-200 5 -230 10 -209 36 9 11
52 14 215 14 197 0 204 1 204 20 0 16 -7 20 -37 21 -31 0 -34 2 -18 9 18 8 18
9 -5 9 -58 2 -59 24 -2 41 27 8 27 8 -5 9 -45 1 -50 19 -11 36 32 14 33 14 6
15 -38 0 -43 16 -11 28 28 11 28 11 5 18 -30 9 -23 28 14 34 l29 6 -33 7 c-38
8 -39 28 -1 37 22 6 22 7 -9 13 -39 8 -34 23 11 36 l32 9 -31 1 c-58 2 -56 61
2 61 39 0 45 -16 12 -30 -21 -9 -20 -9 7 -7 40 3 46 33 10 47 -14 5 -112 10
-216 10 l-189 0 0 -245z m205 205 c6 -18 1 -82 -11 -138 -4 -19 -10 -23 -36
-20 -37 3 -45 22 -47 104 -1 58 11 74 55 74 24 0 34 -5 39 -20z m112 -61 c-4
-44 -9 -84 -12 -90 -7 -11 -62 -12 -69 -1 -2 4 -7 44 -11 90 l-8 82 53 0 53 0
-6 -81z m-117 -138 c11 -22 12 -102 1 -141 -8 -30 -51 -39 -75 -15 -20 20 -23
144 -4 163 19 19 66 15 78 -7z m110 4 c8 -10 11 -39 8 -85 -4 -71 -14 -90 -48
-90 -34 0 -44 19 -48 90 -5 79 5 100 48 100 15 0 33 -7 40 -15z"/>
<path d="M1196 1095 c-11 -12 -16 -35 -16 -77 0 -75 8 -71 16 8 4 32 8 61 10
63 4 5 186 6 342 3 l102 -2 0 -90 0 -90 -232 -3 -233 -2 243 -3 242 -2 0 99
c0 92 -2 99 -21 104 -11 3 -114 6 -229 7 -178 1 -210 -2 -224 -15z"/>
<path d="M1293 784 c-10 -4 -13 -43 -13 -145 l0 -139 154 0 c110 0 157 3 162
12 9 14 7 153 -4 223 l-7 50 -140 2 c-77 1 -146 -1 -152 -3z m287 -139 l0
-135 -123 0 c-166 0 -162 -3 -162 140 0 87 3 113 15 120 8 5 72 10 143 10
l127 0 0 -135z"/>
<path d="M1293 433 c-10 -3 -13 -40 -13 -134 0 -108 2 -129 15 -129 13 0 15
21 15 130 l0 130 135 0 135 0 0 -130 0 -130 -97 -2 -98 -2 94 -3 c59 -3 98 0
107 7 20 17 27 89 19 185 l-7 85 -146 -1 c-81 0 -153 -3 -159 -6z"/>
</g>
</svg>
